<svg xmlns="http://www.w3.org/2000/svg" width="53.563" height="82" viewBox="0 0 53.563 82">
  <g id="_1" data-name="1" transform="translate(1 1)">
    <path id="Path_986" data-name="Path 986" d="M124.775,244.455v3.587a7.363,7.363,0,0,0,2.428,14.314,2.455,2.455,0,1,1-2.455,2.455,2.455,2.455,0,0,0-4.909,0,7.375,7.375,0,0,0,4.935,6.95v2.149a2.455,2.455,0,0,0,4.909,0v-2.167a7.363,7.363,0,0,0-2.481-14.3,2.455,2.455,0,1,1,2.455-2.455,2.455,2.455,0,1,0,4.909,0,7.375,7.375,0,0,0-4.883-6.932v-3.605a2.455,2.455,0,0,0-4.909,0Zm0,0" transform="translate(-101.447 -206.182)" fill="#f5554c" stroke="#fff" stroke-width="2"/>
    <path id="Path_987" data-name="Path 987" d="M24.124.687,10.062,14.749a2.343,2.343,0,0,0,1.657,4H18.75V29.412a25.781,25.781,0,1,0,14.063,0V18.75h7.031a2.343,2.343,0,0,0,1.657-4L27.438.687a2.343,2.343,0,0,0-3.314,0ZM46.875,54.219A21.094,21.094,0,1,1,25.781,33.125,21.118,21.118,0,0,1,46.875,54.219ZM30.469,14.063a2.344,2.344,0,0,0-2.344,2.344V28.545c-.772-.07-1.553-.107-2.344-.107s-1.572.038-2.344.107V16.406a2.344,2.344,0,0,0-2.344-2.344H17.377l8.4-8.4,8.4,8.4Zm0,0" fill="#f5554c" stroke="#fff" stroke-width="2"/>
  </g>
</svg>
