<svg id="_2" data-name="2" xmlns="http://www.w3.org/2000/svg" width="80.008" height="80" viewBox="0 0 80.008 80">
  <g id="Group_752" data-name="Group 752" transform="translate(9.681 54.08)">
    <g id="Group_751" data-name="Group 751">
      <path id="Path_988" data-name="Path 988" d="M64.617,346.525a1.563,1.563,0,1,0,.458,1.106A1.573,1.573,0,0,0,64.617,346.525Z" transform="translate(-61.95 -346.069)" fill="#f5554c"/>
    </g>
  </g>
  <g id="Group_754" data-name="Group 754" transform="translate(10.183)">
    <g id="Group_753" data-name="Group 753">
      <path id="Path_989" data-name="Path 989" d="M116.03,37.271a20.828,20.828,0,0,0-11.649-3.54h-.913a13.2,13.2,0,0,0,4.7-10.094V13.612A8.872,8.872,0,0,0,109.221,9.4V1.563A1.563,1.563,0,0,0,107.658,0H89.475A9.155,9.155,0,0,0,80.33,9.145v2.577a6.575,6.575,0,0,0,1.394,4.053v7.864a13.2,13.2,0,0,0,4.7,10.094h-.834A20.933,20.933,0,0,0,65.2,49.9a1.563,1.563,0,1,0,3.044.707A17.7,17.7,0,0,1,83.708,36.958l10.17,10.171a1.563,1.563,0,0,0,2.21,0L106.26,36.957a17.682,17.682,0,0,1,8.028,2.91,1.563,1.563,0,0,0,1.742-2.595ZM83.455,11.721V9.145a6.026,6.026,0,0,1,6.019-6.019H106.1V9.4a5.808,5.808,0,0,1-5.8,5.8H86.94A3.489,3.489,0,0,1,83.455,11.721ZM94.984,43.813l-6.956-6.956h6.857l.06,0,.06,0h6.936ZM95,33.732h-.12A10.106,10.106,0,0,1,84.849,23.638V17.991a6.577,6.577,0,0,0,2.091.341h13.354a8.87,8.87,0,0,0,4.745-1.371v6.677A10.106,10.106,0,0,1,95,33.732Z" transform="translate(-65.162)" fill="#f5554c"/>
    </g>
  </g>
  <g id="Group_756" data-name="Group 756" transform="translate(0 57.854)">
    <g id="Group_755" data-name="Group 755">
      <path id="Path_990" data-name="Path 990" d="M43.129,370.219a5.322,5.322,0,0,0-5.078,3.75H21.911a5.313,5.313,0,1,0-9.773,4.047L7.8,382.357a5.318,5.318,0,1,0,2.21,2.21l4.341-4.341a5.31,5.31,0,0,0,7.563-3.132h16.14a5.313,5.313,0,1,0,5.078-6.876ZM5.313,389.24A2.188,2.188,0,1,1,7.5,387.052,2.19,2.19,0,0,1,5.313,389.24Zm11.52-11.52a2.188,2.188,0,1,1,2.188-2.188A2.19,2.19,0,0,1,16.833,377.72Zm26.3,0a2.188,2.188,0,1,1,2.188-2.188A2.19,2.19,0,0,1,43.129,377.72Z" transform="translate(0 -370.219)" fill="#f5554c"/>
    </g>
  </g>
  <g id="Group_758" data-name="Group 758" transform="translate(48.6 55.194)">
    <g id="Group_757" data-name="Group 757">
      <path id="Path_991" data-name="Path 991" d="M313.679,353.658a1.565,1.565,0,1,0,.456,1.1A1.575,1.575,0,0,0,313.679,353.658Z" transform="translate(-311.01 -353.2)" fill="#f5554c"/>
    </g>
  </g>
  <g id="Group_760" data-name="Group 760" transform="translate(52.874 26.886)">
    <g id="Group_759" data-name="Group 759">
      <path id="Path_992" data-name="Path 992" d="M363.931,172.05h-5.609a1.563,1.563,0,0,0,0,3.125h1.862l-21.367,21.368a1.563,1.563,0,1,0,2.21,2.21l21.341-21.342v1.809a1.563,1.563,0,1,0,3.125,0v-5.608A1.563,1.563,0,0,0,363.931,172.05Z" transform="translate(-338.359 -172.05)" fill="#f5554c"/>
    </g>
  </g>
  <g id="Group_762" data-name="Group 762" transform="translate(34.121 21.748)">
    <g id="Group_761" data-name="Group 761">
      <path id="Path_993" data-name="Path 993" d="M221.017,139.628a1.564,1.564,0,1,0,.458,1.106A1.575,1.575,0,0,0,221.017,139.628Z" transform="translate(-218.35 -139.17)" fill="#f5554c"/>
    </g>
  </g>
  <g id="Group_764" data-name="Group 764" transform="translate(42.718 21.748)">
    <g id="Group_763" data-name="Group 763">
      <path id="Path_994" data-name="Path 994" d="M276.037,139.628a1.563,1.563,0,1,0,.458,1.106A1.574,1.574,0,0,0,276.037,139.628Z" transform="translate(-273.37 -139.17)" fill="#f5554c"/>
    </g>
  </g>
</svg>
