<svg xmlns="http://www.w3.org/2000/svg" width="58.342" height="80.019" viewBox="0 0 58.342 80.019">
  <g id="_3" data-name="3" transform="translate(-48 8)">
    <g id="Group_768" data-name="Group 768" transform="translate(69.037 64.025)">
      <g id="Group_767" data-name="Group 767">
        <path id="Path_997" data-name="Path 997" d="M200.394,455.411a1.4,1.4,0,1,0,.411.992A1.412,1.412,0,0,0,200.394,455.411Z" transform="translate(-198 -455)" fill="#f5554c"/>
      </g>
    </g>
    <g id="Group_770" data-name="Group 770" transform="translate(80.062 -6.152)">
      <g id="Group_769" data-name="Group 769">
        <path id="Path_998" data-name="Path 998" d="M286.821,27.9h-8.8a1.4,1.4,0,0,0,0,2.8h8.8a1.4,1.4,0,1,0,0-2.8Z" transform="translate(-276.615 -27.897)" fill="#f5554c"/>
      </g>
    </g>
    <g id="Group_772" data-name="Group 772" transform="translate(48 -8)">
      <g id="Group_771" data-name="Group 771">
        <path id="Path_999" data-name="Path 999" d="M104.94,48.336a1.4,1.4,0,0,0,1.4-1.4V-2.93A5.076,5.076,0,0,0,101.272-8H70.461a5.076,5.076,0,0,0-5.07,5.07v17.9a35.947,35.947,0,0,0-13.325,27.94V57.574H50.8a2.808,2.808,0,0,0-2.8,2.8V70.617a1.4,1.4,0,0,0,2.8,0V60.379H75.689V70.617a1.4,1.4,0,0,0,2.8,0V64.446h22.778a5.076,5.076,0,0,0,5.07-5.07V42.165a1.4,1.4,0,1,0-2.8,0v10.36H82.511l4.46-6.285a4.894,4.894,0,0,0-3.991-7.726,4.927,4.927,0,0,0-2.924.969l-8.858,6.6a1.88,1.88,0,0,1-3-1.508v-33.7h35.342V46.934A1.4,1.4,0,0,0,104.94,48.336Zm-1.4,6.994v4.046h0a2.268,2.268,0,0,1-2.266,2.266H78.494V60.379a2.8,2.8,0,0,0-1.135-2.248,13.754,13.754,0,0,0,3.122-2.8l.056,0h23ZM70.075,49.259a4.716,4.716,0,0,0,2.8-.928l8.857-6.6a2.1,2.1,0,0,1,1.248-.414,2.089,2.089,0,0,1,1.7,3.3l-5.918,8.34a10.979,10.979,0,0,1-8.939,4.618H54.87V42.908A32.918,32.918,0,0,1,65.39,18.678v25.9A4.69,4.69,0,0,0,70.075,49.259ZM68.2,10.878V-2.93A2.268,2.268,0,0,1,70.461-5.2h30.811a2.268,2.268,0,0,1,2.266,2.266V10.878Z" transform="translate(-48 8)" fill="#f5554c"/>
      </g>
    </g>
    <g id="Group_774" data-name="Group 774" transform="translate(84.464 56.964)">
      <g id="Group_773" data-name="Group 773">
        <path id="Path_1000" data-name="Path 1000" d="M310.394,405.06a1.4,1.4,0,1,0,.411.991A1.413,1.413,0,0,0,310.394,405.06Z" transform="translate(-308 -404.649)" fill="#f5554c"/>
      </g>
    </g>
    <g id="Group_776" data-name="Group 776" transform="translate(74.6 8.318)">
      <g id="Group_775" data-name="Group 775">
        <path id="Path_1001" data-name="Path 1001" d="M259.506,134.9a3.081,3.081,0,0,0-2.4-1.139h-3.832l-1.187-2.057a1.4,1.4,0,0,0-2.429,1.4l.378.655h-2.2l.378-.655a1.4,1.4,0,0,0-2.429-1.4l-1.188,2.057h-3.832a3.093,3.093,0,0,0-3.029,3.716l1.845,8.961a3.1,3.1,0,0,0,3.029,2.469h12.655a3.1,3.1,0,0,0,3.029-2.469l1.845-8.961A3.081,3.081,0,0,0,259.506,134.9Zm-2.115,2.012-1.845,8.961a.289.289,0,0,1-.282.23H242.609a.289.289,0,0,1-.282-.23l-1.845-8.961a.288.288,0,0,1,.282-.346h2.213l-.8,1.379a1.4,1.4,0,1,0,2.429,1.4l1.606-2.782h5.441l1.606,2.781a1.4,1.4,0,1,0,2.429-1.4l-.8-1.379h2.213a.288.288,0,0,1,.282.346Z" transform="translate(-237.671 -130.998)" fill="#f5554c"/>
      </g>
    </g>
  </g>
</svg>
