<svg xmlns="http://www.w3.org/2000/svg" width="79.968" height="75.104" viewBox="0 0 79.968 75.104">
  <g id="_4" data-name="4" transform="translate(0 -4.6)">
    <g id="Group_756" data-name="Group 756" transform="translate(0 57.569)">
      <g id="Group_755" data-name="Group 755">
        <path id="Path_990" data-name="Path 990" d="M43.107,370.219a5.319,5.319,0,0,0-5.076,3.749H21.9a5.31,5.31,0,1,0-9.768,4.045l-4.339,4.339A5.315,5.315,0,1,0,10,384.56l4.339-4.339a5.307,5.307,0,0,0,7.559-3.13H38.032a5.31,5.31,0,1,0,5.076-6.872ZM5.31,389.23A2.187,2.187,0,1,1,7.5,387.044,2.189,2.189,0,0,1,5.31,389.23Zm11.514-11.514a2.187,2.187,0,1,1,2.187-2.187A2.189,2.189,0,0,1,16.824,377.716Zm26.283,0a2.187,2.187,0,1,1,2.187-2.187A2.189,2.189,0,0,1,43.107,377.716Z" transform="translate(0 -370.219)" fill="#f5554c"/>
      </g>
    </g>
    <g id="Group_758" data-name="Group 758" transform="translate(48.575 54.911)">
      <g id="Group_757" data-name="Group 757">
        <path id="Path_991" data-name="Path 991" d="M313.678,353.658a1.565,1.565,0,1,0,.456,1.1A1.574,1.574,0,0,0,313.678,353.658Z" transform="translate(-311.01 -353.2)" fill="#f5554c"/>
      </g>
    </g>
    <g id="Group_760" data-name="Group 760" transform="translate(52.847 26.617)">
      <g id="Group_759" data-name="Group 759">
        <path id="Path_992" data-name="Path 992" d="M363.918,172.05h-5.606a1.562,1.562,0,0,0,0,3.124h1.861l-21.357,21.357a1.562,1.562,0,1,0,2.209,2.209l21.33-21.331v1.809a1.562,1.562,0,1,0,3.124,0v-5.606A1.562,1.562,0,0,0,363.918,172.05Z" transform="translate(-338.359 -172.05)" fill="#f5554c"/>
      </g>
    </g>
    <g id="Group_766" data-name="Group 766" transform="translate(6.255 6)">
      <g id="Group_765" data-name="Group 765">
        <path id="Path_995" data-name="Path 995" d="M361.675,336a25.676,25.676,0,1,0,25.675,25.676A25.7,25.7,0,0,0,361.675,336Zm0,45.516a19.84,19.84,0,1,1,19.84-19.84A19.863,19.863,0,0,1,361.675,381.516Z" transform="translate(-336 -336)" fill="#f5554c" stroke="#fff" stroke-width="2.8"/>
      </g>
    </g>
    <path id="Path_996" data-name="Path 996" d="M124.985,244.559V248.3a7.676,7.676,0,0,0,2.532,14.923,2.559,2.559,0,1,1-2.559,2.559,2.559,2.559,0,1,0-5.118,0,7.689,7.689,0,0,0,5.145,7.246v2.24a2.559,2.559,0,1,0,5.118,0v-2.259a7.676,7.676,0,0,0-2.586-14.9,2.559,2.559,0,1,1,2.559-2.559,2.559,2.559,0,1,0,5.118,0,7.688,7.688,0,0,0-5.09-7.227v-3.758a2.559,2.559,0,1,0-5.118,0Zm0,0" transform="translate(-95.341 -228.181)" fill="#f5554c" stroke="#fff" stroke-width="2"/>
  </g>
</svg>
