<svg xmlns="http://www.w3.org/2000/svg" xmlns:xlink="http://www.w3.org/1999/xlink" width="408.758" height="316.398" viewBox="0 0 408.758 316.398">
  <defs>
    <linearGradient id="linear-gradient" x1="0.5" y1="1" x2="0.5" gradientUnits="objectBoundingBox">
      <stop offset="0" stop-color="gray" stop-opacity="0.251"/>
      <stop offset="0.54" stop-color="gray" stop-opacity="0.122"/>
      <stop offset="1" stop-color="gray" stop-opacity="0.102"/>
    </linearGradient>
    <linearGradient id="linear-gradient-2" x1="0.5" y1="1" x2="0.5" y2="0" xlink:href="#linear-gradient"/>
  </defs>
  <g id="banner_illustration" data-name="banner illustration" transform="translate(0 0.021)">
    <path id="Path_100" data-name="Path 100" d="M148.161,31.875c-13.144-.484-26.874-.824-38.758,4.81S88.33,55.97,92.315,68.52c1.3,4.091,3.834,7.657,5.971,11.382a65.629,65.629,0,0,1,1.274,61.756c-7.623,14.668-20.544,25.83-29.846,39.5s-14.588,32.606-5.437,46.374c6.266,9.427,17.893,14.013,29.157,15.125s22.593-.639,33.907-1.089a146.051,146.051,0,0,1,64.123,12.127c27.789,12.183,51.728,33.026,80.987,41.068,3.513.964,7.184,1.743,10.777,1.089,6.371-1.161,11-6.428,15.991-10.588,15.923-13.185,37.968-15.647,58.636-16.259s42.2-.14,60.879-9.015c16.312-7.748,28.87-22.162,36.678-38.444s11.2-34.376,12.478-52.393c.756-10.724.73-21.8-3.108-31.835-4.314-11.287-13.064-20.275-22.241-28.133-9.589-8.213-20.041-15.654-31.88-20.086-14.142-5.294-29.494-6.05-44.551-7.305a612,612,0,0,1-91.643-14.717c-28.6-6.837-60-14.3-86.043-28.231C175.352,31.849,162.9,32.4,148.161,31.875Z" transform="translate(-59.52 -31.65)" fill="#f5554c" opacity="0.1"/>
    <g id="Group_29" data-name="Group 29" transform="translate(263.017 172.522)" opacity="0.1">
      <path id="Path_101" data-name="Path 101" d="M773.4,573.052s1.339-18.759,11.9-28.987a28.484,28.484,0,0,0,8.417-15.938,48.17,48.17,0,0,0,.567-8.746" transform="translate(-766.479 -507.491)" fill="#f5554c"/>
      <path id="Path_102" data-name="Path 102" d="M833.409,493.342c-.775,2.072-6.769,6.678-6.769,6.678s-1.512-7.407-.73-9.48a4,4,0,0,1,7.5,2.8Z" transform="translate(-798.994 -487.938)" fill="#f5554c"/>
      <path id="Path_103" data-name="Path 103" d="M835.859,526.928c-1.777,1.316-9.309,1.925-9.309,1.925s2.76-7.037,4.538-8.357a4,4,0,0,1,4.772,6.428Z" transform="translate(-799.532 -507.733)" fill="#f5554c"/>
      <path id="Path_104" data-name="Path 104" d="M816.261,577.2c-2.2.242-9.011-3.025-9.011-3.025s5.937-4.681,8.134-4.916a4,4,0,0,1,.877,7.941Z" transform="translate(-787.53 -538.506)" fill="#f5554c"/>
      <path id="Path_105" data-name="Path 105" d="M791.643,612.9c-2.125.609-9.393-1.471-9.393-1.471s5.059-5.615,7.184-6.224a4,4,0,1,1,2.208,7.7Z" transform="translate(-771.983 -560.749)" fill="#f5554c"/>
      <path id="Path_106" data-name="Path 106" d="M804.772,527.834c.945,2,7.305,6.077,7.305,6.077s.877-7.506-.072-9.506a4,4,0,0,0-7.233,3.43Z" transform="translate(-785.778 -509.256)" fill="#f5554c"/>
      <path id="Path_107" data-name="Path 107" d="M776.049,568c1.513,1.622,8.792,3.615,8.792,3.615s-1.41-7.427-2.912-9.052a4,4,0,1,0-5.88,5.438Z" transform="translate(-767.465 -533.547)" fill="#f5554c"/>
      <path id="Path_108" data-name="Path 108" d="M755.684,613.522c1.2,1.853,8.054,5.048,8.054,5.048s-.136-7.563-1.342-9.412a4,4,0,0,0-6.712,4.364Z" transform="translate(-755.097 -562.247)" fill="#f5554c"/>
      <path id="Path_109" data-name="Path 109" d="M833.409,493.342c-.775,2.072-6.769,6.678-6.769,6.678s-1.512-7.407-.73-9.48a4,4,0,0,1,7.5,2.8Z" transform="translate(-798.994 -487.938)" fill="#f5554c"/>
      <path id="Path_110" data-name="Path 110" d="M835.859,526.928c-1.777,1.316-9.309,1.925-9.309,1.925s2.76-7.037,4.538-8.357a4,4,0,0,1,4.772,6.428Z" transform="translate(-799.532 -507.733)" fill="#f5554c"/>
      <path id="Path_111" data-name="Path 111" d="M816.261,577.2c-2.2.242-9.011-3.025-9.011-3.025s5.937-4.681,8.134-4.916a4,4,0,0,1,.877,7.941Z" transform="translate(-787.53 -538.506)" fill="#f5554c"/>
      <path id="Path_112" data-name="Path 112" d="M791.643,612.9c-2.125.609-9.393-1.471-9.393-1.471s5.059-5.615,7.184-6.224a4,4,0,1,1,2.208,7.7Z" transform="translate(-771.983 -560.749)" fill="#f5554c"/>
      <path id="Path_113" data-name="Path 113" d="M804.772,527.834c.945,2,7.305,6.077,7.305,6.077s.877-7.506-.072-9.506a4,4,0,0,0-7.233,3.43Z" transform="translate(-785.778 -509.256)" fill="#f5554c"/>
      <path id="Path_114" data-name="Path 114" d="M776.049,568c1.513,1.622,8.792,3.615,8.792,3.615s-1.41-7.427-2.912-9.052a4,4,0,1,0-5.88,5.438Z" transform="translate(-767.465 -533.547)" fill="#f5554c"/>
      <path id="Path_115" data-name="Path 115" d="M755.684,613.522c1.2,1.853,8.054,5.048,8.054,5.048s-.136-7.563-1.342-9.412a4,4,0,0,0-6.712,4.364Z" transform="translate(-755.097 -562.247)" fill="#f5554c"/>
    </g>
    <g id="Group_30" data-name="Group 30" transform="translate(266.6 101.517)" opacity="0.1">
      <path id="Path_116" data-name="Path 116" d="M783.2,385.271s1.339-18.759,11.9-28.987a28.511,28.511,0,0,0,8.417-15.938,47.518,47.518,0,0,0,.567-8.746" transform="translate(-776.156 -319.711)" fill="#f5554c"/>
      <path id="Path_117" data-name="Path 117" d="M843.212,305.562c-.756,2.068-6.765,6.674-6.765,6.674s-1.513-7.408-.734-9.476a4,4,0,1,1,7.5,2.8Z" transform="translate(-808.674 -300.157)" fill="#f5554c"/>
      <path id="Path_118" data-name="Path 118" d="M845.689,338.932c-1.773,1.32-9.31,1.925-9.31,1.925s2.76-7.033,4.538-8.353a4,4,0,1,1,4.772,6.428Z" transform="translate(-809.227 -319.741)" fill="#f5554c"/>
      <path id="Path_119" data-name="Path 119" d="M826.067,389.391c-2.2.242-9.007-3.025-9.007-3.025s5.937-4.677,8.134-4.916a4,4,0,1,1,.873,7.96Z" transform="translate(-797.213 -350.696)" fill="#f5554c"/>
      <path id="Path_120" data-name="Path 120" d="M801.443,425.172c-2.125.609-9.393-1.471-9.393-1.471s5.063-5.615,7.185-6.228a4,4,0,1,1,2.2,7.7Z" transform="translate(-781.66 -373.016)" fill="#f5554c"/>
      <path id="Path_121" data-name="Path 121" d="M814.494,339.876c.945,2,7.309,6.08,7.309,6.08s.873-7.51-.072-9.506a4,4,0,1,0-7.238,3.426Z" transform="translate(-795.377 -321.301)" fill="#f5554c"/>
      <path id="Path_122" data-name="Path 122" d="M785.964,380.34c1.513,1.626,8.8,3.615,8.8,3.615s-1.414-7.426-2.915-9.049a4,4,0,0,0-5.88,5.434Z" transform="translate(-777.257 -345.888)" fill="#f5554c"/>
      <path id="Path_123" data-name="Path 123" d="M765.282,425.43c1.206,1.853,8.054,5.048,8.054,5.048s-.136-7.563-1.342-9.412a4,4,0,1,0-6.712,4.364Z" transform="translate(-764.572 -374.155)" fill="#f5554c"/>
      <path id="Path_124" data-name="Path 124" d="M843.212,305.562c-.756,2.068-6.765,6.674-6.765,6.674s-1.513-7.408-.734-9.476a4,4,0,1,1,7.5,2.8Z" transform="translate(-808.674 -300.157)" fill="#f5554c"/>
      <path id="Path_125" data-name="Path 125" d="M845.689,338.932c-1.773,1.32-9.31,1.925-9.31,1.925s2.76-7.033,4.538-8.353a4,4,0,1,1,4.772,6.428Z" transform="translate(-809.227 -319.741)" fill="#f5554c"/>
      <path id="Path_126" data-name="Path 126" d="M826.067,389.391c-2.2.242-9.007-3.025-9.007-3.025s5.937-4.677,8.134-4.916a4,4,0,1,1,.873,7.96Z" transform="translate(-797.213 -350.696)" fill="#f5554c"/>
      <path id="Path_127" data-name="Path 127" d="M801.443,425.172c-2.125.609-9.393-1.471-9.393-1.471s5.063-5.615,7.185-6.228a4,4,0,1,1,2.2,7.7Z" transform="translate(-781.66 -373.016)" fill="#f5554c"/>
      <path id="Path_128" data-name="Path 128" d="M814.494,339.876c.945,2,7.309,6.08,7.309,6.08s.873-7.51-.072-9.506a4,4,0,1,0-7.238,3.426Z" transform="translate(-795.377 -321.301)" fill="#f5554c"/>
      <path id="Path_129" data-name="Path 129" d="M785.964,380.34c1.513,1.626,8.8,3.615,8.8,3.615s-1.414-7.426-2.915-9.049a4,4,0,0,0-5.88,5.434Z" transform="translate(-777.257 -345.888)" fill="#f5554c"/>
      <path id="Path_130" data-name="Path 130" d="M765.282,425.43c1.206,1.853,8.054,5.048,8.054,5.048s-.136-7.563-1.342-9.412a4,4,0,1,0-6.712,4.364Z" transform="translate(-764.572 -374.155)" fill="#f5554c"/>
    </g>
    <g id="Group_31" data-name="Group 31" transform="translate(24.807 138.85)" opacity="0.1">
      <path id="Path_131" data-name="Path 131" d="M189.291,468.2s-16.15-9.627-20.547-23.648a28.458,28.458,0,0,0-10.451-14.683,47.682,47.682,0,0,0-7.563-4.439" transform="translate(-141.047 -415.394)" fill="#f5554c"/>
      <path id="Path_132" data-name="Path 132" d="M131.989,400.091c1.513,1.622,2.923,9.049,2.923,9.049s-7.294-1.985-8.8-3.607a4,4,0,0,1,5.872-5.441Z" transform="translate(-125.123 -398.889)" fill="#f5554c"/>
      <path id="Path_133" data-name="Path 133" d="M165.03,408.382c.378,2.178-2.465,9.181-2.465,9.181s-5.044-5.63-5.422-7.808a4,4,0,1,1,7.888-1.373Z" transform="translate(-144.987 -402.668)" fill="#f5554c"/>
      <path id="Path_134" data-name="Path 134" d="M202.469,446.023c-.756,2.072-6.765,6.682-6.765,6.682s-1.513-7.408-.737-9.476a4,4,0,1,1,7.5,2.794Z" transform="translate(-168.419 -424.775)" fill="#f5554c"/>
      <path id="Path_135" data-name="Path 135" d="M223.176,484.736c-.408,2.174-5.536,7.748-5.536,7.748s-2.741-7.044-2.329-9.215a4,4,0,0,1,7.865,1.486Z" transform="translate(-181.182 -449.335)" fill="#f5554c"/>
      <path id="Path_136" data-name="Path 136" d="M149.64,441.012c2.208.053,8.716-3.781,8.716-3.781s-6.315-4.159-8.527-4.212a4,4,0,1,0-.189,8.006Z" transform="translate(-137.938 -420.112)" fill="#f5554c"/>
      <path id="Path_137" data-name="Path 137" d="M172.949,484.789c2.125-.613,7.184-6.232,7.184-6.232s-7.268-2.076-9.393-1.463a4,4,0,0,0,2.212,7.695Z" transform="translate(-151.744 -447.452)" fill="#f5554c"/>
      <path id="Path_138" data-name="Path 138" d="M203.758,523.438c2.2-.242,8.134-4.916,8.134-4.916s-6.806-3.275-9.011-3.025a4,4,0,1,0,.877,7.941Z" transform="translate(-171.127 -471.396)" fill="#f5554c"/>
      <path id="Path_139" data-name="Path 139" d="M131.989,400.091c1.513,1.622,2.923,9.049,2.923,9.049s-7.294-1.985-8.8-3.607a4,4,0,0,1,5.872-5.441Z" transform="translate(-125.123 -398.889)" fill="#f5554c"/>
      <path id="Path_140" data-name="Path 140" d="M165.03,408.382c.378,2.178-2.465,9.181-2.465,9.181s-5.044-5.63-5.422-7.808a4,4,0,1,1,7.888-1.373Z" transform="translate(-144.987 -402.668)" fill="#f5554c"/>
      <path id="Path_141" data-name="Path 141" d="M202.469,446.023c-.756,2.072-6.765,6.682-6.765,6.682s-1.513-7.408-.737-9.476a4,4,0,1,1,7.5,2.794Z" transform="translate(-168.419 -424.775)" fill="#f5554c"/>
      <path id="Path_142" data-name="Path 142" d="M223.176,484.736c-.408,2.174-5.536,7.748-5.536,7.748s-2.741-7.044-2.329-9.215a4,4,0,0,1,7.865,1.486Z" transform="translate(-181.182 -449.335)" fill="#f5554c"/>
      <path id="Path_143" data-name="Path 143" d="M149.64,441.012c2.208.053,8.716-3.781,8.716-3.781s-6.315-4.159-8.527-4.212a4,4,0,1,0-.189,8.006Z" transform="translate(-137.938 -420.112)" fill="#f5554c"/>
      <path id="Path_144" data-name="Path 144" d="M172.949,484.789c2.125-.613,7.184-6.232,7.184-6.232s-7.268-2.076-9.393-1.463a4,4,0,0,0,2.212,7.695Z" transform="translate(-151.744 -447.452)" fill="#f5554c"/>
      <path id="Path_145" data-name="Path 145" d="M203.758,523.438c2.2-.242,8.134-4.916,8.134-4.916s-6.806-3.275-9.011-3.025a4,4,0,1,0,.877,7.941Z" transform="translate(-171.127 -471.396)" fill="#f5554c"/>
    </g>
    <path id="Path_146" data-name="Path 146" d="M776.25,814.193c10.856,4.723,24.1,1.849,36.421,2.182a9.97,9.97,0,0,1,4.821,1c1.35.817,2.019,2.136,2.946,3.271,3.452,4.212,10.527,5.566,16.709,4.851s11.851-3.082,17.685-4.882c10.085-3.116,21.61-4.538,31.559-1.134a6.517,6.517,0,0,0,2.851.544c2.182-.276,2.832-2.537,4.356-3.827,2.753-2.333,8.735-1.7,9.945-4.772.707-1.8-.923-3.645-2.7-4.874-6.806-4.7-16.524-5.479-25.422-4.753s-17.643,2.726-26.586,2.734c-11.143,0-21.909-3.07-32.942-4.33-7.642-.87-15.983-.756-23.149,1.8C784.977,804.777,783.268,811.013,776.25,814.193Z" transform="translate(-505.234 -509.302)" fill="#f5554c" opacity="0.1"/>
    <path id="Path_147" data-name="Path 147" d="M232.93,772.79c18.528,5.335,41.14,2.087,62.164,2.465,2.878.053,5.925.208,8.236,1.134s3.445,2.42,5.029,3.7c5.891,4.761,17.965,6.292,28.515,5.483s20.23-3.483,30.19-5.517c17.212-3.52,36.89-5.124,53.868-1.286a16.1,16.1,0,0,0,4.87.616c3.721-.314,4.829-2.866,7.434-4.326,4.7-2.647,14.906-1.917,16.97-5.388,1.21-2.034-1.573-4.122-4.606-5.509-11.6-5.313-28.2-6.19-43.39-5.369s-30.118,3.078-45.375,3.089c-19.02,0-37.4-3.467-56.231-4.893-13.045-.983-27.282-.862-39.514,2.042C247.828,762.165,244.905,769.209,232.93,772.79Z" transform="translate(-167.359 -482.385)" fill="#f5554c" opacity="0.1"/>
    <path id="Path_149" data-name="Path 149" d="M439.562,67.32H263.876A16.089,16.089,0,0,0,247.76,83.387V326.8a16.089,16.089,0,0,0,16.116,16.055H439.562a16.089,16.089,0,0,0,16.116-16.067V83.387A16.089,16.089,0,0,0,439.562,67.32Z" transform="translate(-176.581 -53.845)" fill="url(#linear-gradient)"/>
    <rect id="Rectangle_42" data-name="Rectangle 42" width="202.949" height="269.771" rx="20" transform="translate(73.656 16.776)" fill="#535461"/>
    <rect id="Rectangle_43" data-name="Rectangle 43" width="182.326" height="218.736" transform="translate(83.967 42.292)" fill="#f6f7f9"/>
    <circle id="Ellipse_7" data-name="Ellipse 7" cx="2.477" cy="2.477" r="2.477" transform="translate(171.829 26.672)" fill="#f6f7f9"/>
    <circle id="Ellipse_8" data-name="Ellipse 8" cx="7.426" cy="7.426" r="7.426" transform="translate(166.879 265.921)" fill="#f6f7f9"/>
    <g id="Group_32" data-name="Group 32" transform="translate(83.967 42.292)" opacity="0.2">
      <rect id="Rectangle_44" data-name="Rectangle 44" width="182.326" height="10.901" fill="#f5554c"/>
    </g>
    <circle id="Ellipse_9" data-name="Ellipse 9" cx="2.325" cy="2.325" r="2.325" transform="translate(87.344 45.419)" fill="#f6f7f9"/>
    <circle id="Ellipse_10" data-name="Ellipse 10" cx="2.325" cy="2.325" r="2.325" transform="translate(93.269 45.419)" fill="#f6f7f9"/>
    <circle id="Ellipse_11" data-name="Ellipse 11" cx="2.325" cy="2.325" r="2.325" transform="translate(99.191 45.419)" fill="#f6f7f9"/>
    <rect id="Rectangle_45" data-name="Rectangle 45" width="169.783" height="0.567" transform="translate(89.412 106.593)" fill="#dce0ed"/>
    <rect id="Rectangle_46" data-name="Rectangle 46" width="169.783" height="0.567" transform="translate(89.412 119.763)" fill="#dce0ed"/>
    <rect id="Rectangle_47" data-name="Rectangle 47" width="169.783" height="0.567" transform="translate(89.412 132.937)" fill="#dce0ed"/>
    <rect id="Rectangle_48" data-name="Rectangle 48" width="169.783" height="0.567" transform="translate(89.412 146.107)" fill="#dce0ed"/>
    <rect id="Rectangle_49" data-name="Rectangle 49" width="169.783" height="0.567" transform="translate(89.412 159.277)" fill="#dce0ed"/>
    <g id="Group_33" data-name="Group 33" transform="translate(89.204 114.628)" opacity="0.2">
      <path id="Path_150" data-name="Path 150" d="M405.9,348.4H235.91v-25.9l15.59,7.684,16.135,2.189,14.157-4.269,17.08-13.246,8.591-4.961,6.281-1.21,6.009.321,9.88,4.882,13.435,8.557L353.61,323.8l8.357-2.881,17.719-14.509,9.045-3.225,9.465,1.463,7.706,4.451Z" transform="translate(-235.91 -303.18)" fill="#f5554c"/>
    </g>
    <path id="Path_151" data-name="Path 151" d="M325.054,363.852c-15.31,0-29.456-9.362-29.634-9.483l.423-.628c.219.147,21.992,14.55,40.494,7.336,6.746-2.647,11.548-6.723,16.2-10.682,4.851-4.133,9.431-8.035,15.677-9.729a23.449,23.449,0,0,1,20.937,4.7c5.086,4.178,15.212,10.886,25.909,8.882,5.453-1.025,10.047-5.006,14.913-9.223,9.328-8.084,18.978-16.445,35.669-4.451l-.442.613c-16.207-11.646-25.622-3.483-34.731,4.409-4.946,4.284-9.616,8.319-15.269,9.393-11,2.065-21.342-4.78-26.529-9.041a22.713,22.713,0,0,0-20.26-4.556c-6.08,1.649-10.588,5.5-15.386,9.574-4.693,4-9.544,8.134-16.407,10.811A31.658,31.658,0,0,1,325.054,363.852Z" transform="translate(-206.219 -220.044)" fill="#f5554c"/>
    <circle id="Ellipse_12" data-name="Ellipse 12" cx="4.209" cy="4.209" r="4.209" transform="translate(166.902 115.883)" fill="#f5554c"/>
    <g id="Group_34" data-name="Group 34" transform="translate(172.056 64.401)" opacity="0.2">
      <path id="Path_152" data-name="Path 152" d="M568.491,202H515.4a.862.862,0,0,0-.862.862v35.9a.862.862,0,0,0,1.49.59l9.2-9.812a.859.859,0,0,1,.628-.272h42.634a.862.862,0,0,0,.862-.862V202.855A.862.862,0,0,0,568.491,202Z" transform="translate(-514.54 -202)" fill="#f5554c"/>
    </g>
    <rect id="Rectangle_50" data-name="Rectangle 50" width="30.231" height="3.781" transform="translate(184.345 71.049)" fill="#f6f7f9"/>
    <rect id="Rectangle_51" data-name="Rectangle 51" width="8.3" height="3.781" transform="translate(184.345 79.428)" fill="#f6f7f9"/>
    <g id="Group_35" data-name="Group 35" transform="translate(103.751 186.903)" opacity="0.2">
      <rect id="Rectangle_52" data-name="Rectangle 52" width="8.3" height="3.781" fill="#f5554c"/>
    </g>
    <g id="Group_36" data-name="Group 36" transform="translate(103.751 194.213)" opacity="0.2">
      <rect id="Rectangle_53" data-name="Rectangle 53" width="8.3" height="3.781" fill="#f5554c"/>
    </g>
    <g id="Group_37" data-name="Group 37" transform="translate(103.751 201.522)" opacity="0.2">
      <rect id="Rectangle_54" data-name="Rectangle 54" width="8.3" height="3.781" fill="#f5554c"/>
    </g>
    <g id="Group_38" data-name="Group 38" transform="translate(103.751 208.835)" opacity="0.2">
      <rect id="Rectangle_55" data-name="Rectangle 55" width="8.3" height="3.781" fill="#f5554c"/>
    </g>
    <g id="Group_39" data-name="Group 39" transform="translate(103.751 216.144)" opacity="0.2">
      <rect id="Rectangle_56" data-name="Rectangle 56" width="8.3" height="3.781" fill="#f5554c"/>
    </g>
    <g id="Group_40" data-name="Group 40" transform="translate(103.751 223.453)" opacity="0.2">
      <rect id="Rectangle_57" data-name="Rectangle 57" width="8.3" height="3.781" fill="#f5554c"/>
    </g>
    <g id="Group_41" data-name="Group 41" transform="translate(103.751 230.766)" opacity="0.2">
      <rect id="Rectangle_58" data-name="Rectangle 58" width="8.3" height="3.781" fill="#f5554c"/>
    </g>
    <g id="Group_42" data-name="Group 42" transform="translate(103.751 238.075)" opacity="0.2">
      <rect id="Rectangle_59" data-name="Rectangle 59" width="8.3" height="3.781" fill="#f5554c"/>
    </g>
    <g id="Group_43" data-name="Group 43" transform="translate(119.379 241.857)" opacity="0.2">
      <rect id="Rectangle_60" data-name="Rectangle 60" width="8.3" height="3.781" fill="#f5554c"/>
    </g>
    <g id="Group_44" data-name="Group 44" transform="translate(134.001 241.857)" opacity="0.2">
      <rect id="Rectangle_61" data-name="Rectangle 61" width="8.3" height="3.781" fill="#f5554c"/>
    </g>
    <g id="Group_45" data-name="Group 45" transform="translate(148.623 241.857)" opacity="0.2">
      <rect id="Rectangle_62" data-name="Rectangle 62" width="8.3" height="3.781" fill="#f5554c"/>
    </g>
    <g id="Group_46" data-name="Group 46" transform="translate(163.242 241.857)" opacity="0.2">
      <rect id="Rectangle_63" data-name="Rectangle 63" width="8.3" height="3.781" fill="#f5554c"/>
    </g>
    <g id="Group_47" data-name="Group 47" transform="translate(177.864 241.857)" opacity="0.2">
      <rect id="Rectangle_64" data-name="Rectangle 64" width="8.3" height="3.781" fill="#f5554c"/>
    </g>
    <g id="Group_48" data-name="Group 48" transform="translate(192.486 241.857)" opacity="0.2">
      <rect id="Rectangle_65" data-name="Rectangle 65" width="8.3" height="3.781" fill="#f5554c"/>
    </g>
    <g id="Group_49" data-name="Group 49" transform="translate(207.105 241.857)" opacity="0.2">
      <rect id="Rectangle_66" data-name="Rectangle 66" width="8.3" height="3.781" fill="#f5554c"/>
    </g>
    <g id="Group_50" data-name="Group 50" transform="translate(221.727 241.857)" opacity="0.2">
      <rect id="Rectangle_67" data-name="Rectangle 67" width="8.3" height="3.781" fill="#f5554c"/>
    </g>
    <g id="Group_51" data-name="Group 51" transform="translate(236.349 241.857)" opacity="0.2">
      <rect id="Rectangle_68" data-name="Rectangle 68" width="8.3" height="3.781" fill="#f5554c"/>
    </g>
    <rect id="Rectangle_69" data-name="Rectangle 69" width="12.603" height="3.781" transform="translate(201.973 79.428)" fill="#f6f7f9"/>
    <rect id="Rectangle_70" data-name="Rectangle 70" width="8.3" height="23.697" transform="translate(119.379 214.378)" fill="#f5554c"/>
    <rect id="Rectangle_71" data-name="Rectangle 71" width="8.3" height="34.663" transform="translate(134.001 203.412)" fill="#f5554c"/>
    <rect id="Rectangle_72" data-name="Rectangle 72" width="8.3" height="43.863" transform="translate(148.623 194.213)" fill="#f5554c"/>
    <rect id="Rectangle_73" data-name="Rectangle 73" width="8.3" height="39.091" transform="translate(163.242 198.981)" fill="#f5554c"/>
    <rect id="Rectangle_74" data-name="Rectangle 74" width="8.3" height="47.391" transform="translate(177.864 190.685)" fill="#f5554c"/>
    <g id="Group_52" data-name="Group 52" transform="translate(192.486 208.835)" opacity="0.2">
      <rect id="Rectangle_75" data-name="Rectangle 75" width="8.3" height="29.241" fill="#f5554c"/>
    </g>
    <g id="Group_53" data-name="Group 53" transform="translate(207.105 208.835)" opacity="0.2">
      <rect id="Rectangle_76" data-name="Rectangle 76" width="8.3" height="29.241" fill="#f5554c"/>
    </g>
    <g id="Group_54" data-name="Group 54" transform="translate(221.727 208.835)" opacity="0.2">
      <rect id="Rectangle_77" data-name="Rectangle 77" width="8.3" height="29.241" fill="#f5554c"/>
    </g>
    <g id="Group_55" data-name="Group 55" transform="translate(236.349 208.835)" opacity="0.2">
      <rect id="Rectangle_78" data-name="Rectangle 78" width="8.3" height="29.241" fill="#f5554c"/>
    </g>
    <path id="Path_153" data-name="Path 153" d="M915.26,225.621c-8.988-5.169-12.384-6.451-12.4-6.458l-.182-.132a7.513,7.513,0,0,1-2.269-2.862v-.556c.144-2.738,2.091-5.23,3.94-7.4l4.723-5.558a5.4,5.4,0,0,0,1.218-1.928,4.31,4.31,0,0,0,.129-1.184v-.484c-.023-1.38-.064-2.764-.113-4.159-.045-1.206-.355-2.726-1.562-2.976-.628-.129-1.456.1-1.788-.442a1.028,1.028,0,0,1-.079-.715.284.284,0,0,0,0,.057v-.068a16.037,16.037,0,0,0,.45-2.84,3.95,3.95,0,0,0-.2-1.437c-.7-2-3.1-2.825-5.233-3.2s-4.511-.7-5.846-2.367a17.439,17.439,0,0,0-1.161-1.6,4.609,4.609,0,0,0-2.174-1.074,12.286,12.286,0,0,0-7.911.688,7.119,7.119,0,0,1-3.188,1.01c-1.127-.068-2.174-.881-3.331-1.078-1.868-.318-3.656,1.055-4.575,2.677a6.539,6.539,0,0,0-.847,3.161c0,.06,0,.125,0,.185h0a4.61,4.61,0,0,0,1.214,3.225c.805.836,2.008,1.41,2.341,2.511.136.446.1.93.223,1.384a.537.537,0,0,0,.053.166l-.06.079a14.008,14.008,0,0,0-2.964,8.652,14.331,14.331,0,0,0,10.069,13.59v.424a6.084,6.084,0,0,1-1.955,4.757l-12.728,5.12s-7.672-.911-10.44,10.3a18.949,18.949,0,0,0-.476,5.691,16.683,16.683,0,0,1-2.1,8.523c-3.15,6.163-2.431,20.313,4,21.716,6.077,1.323,8.455.756,8.7.707v.246c-.1,2.647-1.062,25.558-4.568,28.329-.968.756-.787,1.286,0,1.634,0,0,0,.147-.023.412-.106,1.675-.647,8.054-2.991,11.684-2.719,4.2-2.435,28.443-2.435,28.443l-1.827,14.3s1.134,8.826,0,10.368c-1.021,1.373-2.382,34.031-2.647,41.106h-.121a3.437,3.437,0,0,0-2.749,1.675c-1.512,2.443-6.768,6.954-6.768,6.954-1.134,1.622-5.366,3.172-7.6,3.906a4.613,4.613,0,0,0-.862.378,4.538,4.538,0,0,0-1.917,2.019,2.186,2.186,0,0,0-.208,1.686c.575,1.4,12.448,2.378,15.45.979,2.363-1.1,11.722-2.552,15.605-3.12a3.21,3.21,0,0,0,2.779-2.776,1.834,1.834,0,0,0-.378-1.391h0c-.756-.923-1.135-3.437-1.3-5.078a3.351,3.351,0,0,0,.873-.518,37.256,37.256,0,0,1,2.144-14.989c2.862-7.563,3.721-21.58,3.025-30.685,0,0,8.727-37.548,15.594-41.053h0c.106.132,3.437,4.413,3.861,17.651.431,13.45,5.294,22.275,5.294,22.275s-2.148,22.839,0,31.385l-2.81,13.484c-.2-.178-.337-.314-.337-.314s.083.378.2.976l-.06.284.121.03a26.581,26.581,0,0,1,.6,6.349c-.113.979-.378,2.325-.575,3.645-.295,2.076-.378,4.088.715,4.538,1.789.718,12.3,1.7,14.093-.609a3.32,3.32,0,0,0,.522-3.464,3.536,3.536,0,0,0-.522-.881s-2.791-4.564-2-7.782a2.351,2.351,0,0,0-.333-1.849,94.15,94.15,0,0,1,2.409-15.1c1.788-6.742,5.566-21.523,2.787-31.245h0c-.106-.378-.227-.756-.355-1.134a41.888,41.888,0,0,1-1.573-16.392,33.389,33.389,0,0,1,0-14.293c1.717-7.846,2.915-15.552,2.915-15.552s.949-10.365.121-16.721l-.057-.408.454-.1s-2.431-10.788-3.29-17.651c-.2-1.622-.469-3.675-.756-5.869a14.22,14.22,0,0,0,2.333-.579c7.7-2.673,10.119-26.768,10.119-26.768V242.5S924.275,230.8,915.26,225.621ZM857.709,411.686c-.238-.121-.378-.2-.378-.2h0Z" transform="translate(-541.11 -122.594)" fill="url(#linear-gradient-2)"/>
    <path id="Path_154" data-name="Path 154" d="M944.838,559.292c3.35,9.635-.56,25.27-2.375,32.25a97.636,97.636,0,0,0-2.375,15.363,32.319,32.319,0,0,1-12.285-.284l2.93-14.369c-2.095-8.515,0-31.275,0-31.275s-4.745-8.8-5.165-22.2c-.412-13.2-3.664-17.458-3.781-17.591h0c-6.7,3.49-15.22,40.913-15.22,40.913.7,9.075-.14,23.036-2.93,30.575a37.894,37.894,0,0,0-2.095,14.94,4.607,4.607,0,0,1-3.8.73c-3.974-.662-8.742-4.1-8.742-4.1s1.513-40.766,2.647-42.3,0-10.334,0-10.334l1.811-14.24s-.276-24.159,2.375-28.36c2.291-3.619,2.817-9.975,2.919-11.643a3.013,3.013,0,0,1,.023-.412l4.038-4.84s39.1-2.931,42.029,0c.722.722,1.165,2.356,1.429,4.416.805,6.334-.117,16.664-.117,16.664s-1.172,7.68-2.847,15.5a33.874,33.874,0,0,0,0,14.24A42.554,42.554,0,0,0,944.838,559.292Z" transform="translate(-575.35 -317.205)" fill="#dbdade"/>
    <path id="Path_155" data-name="Path 155" d="M1005.982,805.438c-1.747,2.3-12.009,1.323-13.756.609-1.066-.442-.983-2.446-.7-4.515.181-1.316.45-2.647.56-3.634.28-2.515-.839-7.612-.839-7.612s2.307,2.443,2.862,0a2.666,2.666,0,0,1,1.993-1.891,5.237,5.237,0,0,1,3.626.227c1.811.787,4.84,2.465,4.3,4.734-.756,3.206,1.955,7.755,1.955,7.755a3.535,3.535,0,0,1,.507.877A3.358,3.358,0,0,1,1005.982,805.438Z" transform="translate(-638.937 -502.124)" fill="#a27772"/>
    <path id="Path_156" data-name="Path 156" d="M1006.134,827.406c-1.747,2.3-12.009,1.323-13.756.609-1.066-.442-.983-2.447-.7-4.515a11.869,11.869,0,0,0,6.1.654,17.742,17.742,0,0,1,2.2-.068,50.7,50.7,0,0,0,6.663-.132A3.358,3.358,0,0,1,1006.134,827.406Z" transform="translate(-639.089 -524.092)" opacity="0.1"/>
    <path id="Path_157" data-name="Path 157" d="M920.975,607.6c.7,9.075-.14,23.036-2.93,30.576a37.893,37.893,0,0,0-2.095,14.94,4.608,4.608,0,0,1-3.8.73c.843-5.9,4.432-31.264,6.75-51.308A83.784,83.784,0,0,1,933.752,564l2.443,2.688C929.487,570.175,920.975,607.6,920.975,607.6Z" transform="translate(-589.747 -362.716)" opacity="0.1"/>
    <path id="Path_158" data-name="Path 158" d="M972.338,263.624,970.633,272l-8.349,14.032-10.3-4.4s-13.991-14.66-5.2-16.755a7.711,7.711,0,0,0,2.919-1.3,6,6,0,0,0,2.269-5.048,15.787,15.787,0,0,0-1.429-6.008l18.01-5.672a28.776,28.776,0,0,0-1.293,7.3c-.136,4.916,1.687,7.321,3.18,8.474a5.459,5.459,0,0,0,1.894,1Z" transform="translate(-609.483 -165.49)" fill="#fbbebe"/>
    <path id="Path_159" data-name="Path 159" d="M979.54,246.9a28.761,28.761,0,0,0-1.293,7.3,13.232,13.232,0,0,1-1.047,1.112,14.244,14.244,0,0,1-14.24,3.252,15.786,15.786,0,0,0-1.429-6.008Z" transform="translate(-620.455 -165.521)" opacity="0.1"/>
    <path id="Path_160" data-name="Path 160" d="M967.78,217.384a14.18,14.18,0,1,1-4.146-10.084A14.24,14.24,0,0,1,967.78,217.384Z" transform="translate(-606.63 -138.308)" fill="#fbbebe"/>
    <path id="Path_161" data-name="Path 161" d="M972.338,289.593l-1.705,8.376L962.284,312l-10.3-4.4s-13.991-14.66-5.2-16.755a7.71,7.71,0,0,0,2.919-1.3c-1.588,4.367,4.969,13.45,4.969,13.45.756,1.134,2.514.416,2.514.416,4.22-.635,12-12.784,13.265-14.8A5.46,5.46,0,0,0,972.338,289.593Z" transform="translate(-609.483 -191.459)" opacity="0.1"/>
    <path id="Path_162" data-name="Path 162" d="M962.3,496.594c-2.477.563-16.2,3.6-21.4,2.844-5.721-.839-16.853-1.4-16.853-1.4s-7.086.378-9.268-.613a3.022,3.022,0,0,1,.023-.412l4.038-4.84s39.1-2.931,42.029,0C961.592,492.893,962.035,494.526,962.3,496.594Z" transform="translate(-591.382 -317.242)" opacity="0.1"/>
    <path id="Path_163" data-name="Path 163" d="M920.566,303.656s-7.366-10.209-4.59-14.176l-12.444,5.1s-7.491-.907-10.209,10.27a19.334,19.334,0,0,0-.465,5.672,16.9,16.9,0,0,1-2.049,8.493c-3.074,6.145-2.375,20.245,3.91,21.644s8.515.7,8.515.7-.835,25.554-4.465,28.484,9.253,2.235,9.253,2.235,11.132.56,16.857,1.4,21.78-2.93,21.78-2.93-2.375-10.754-3.21-17.594-2.794-21.41-2.794-21.41L954.9,312.251s2.511-11.658-6.285-16.823-12.1-6.428-12.1-6.428-8.825,14.369-13.431,15.076C923.081,304.076,921.33,304.779,920.566,303.656Z" transform="translate(-575.373 -191.702)" fill="#132e63"/>
    <path id="Path_164" data-name="Path 164" d="M925.315,338.47s-.14,4.609.7,6.428,3.91,11.869,3.91,11.869h-6.98s3.781-4.05,3.49-6S925.315,338.47,925.315,338.47Z" transform="translate(-596.457 -222.466)" opacity="0.1"/>
    <path id="Path_165" data-name="Path 165" d="M947.26,398.232s-15.42-3.781-16.857-6.984-5.4-10.395-5.4-10.395l1.626-2.193,7.5,5.887s8.935,7.12,13.125,7.82S947.26,398.232,947.26,398.232Z" transform="translate(-597.738 -247.459)" fill="#fbbebe"/>
    <path id="Path_166" data-name="Path 166" d="M947.26,398.232s-15.42-3.781-16.857-6.984-5.4-10.395-5.4-10.395l1.626-2.193,7.5,5.887s8.935,7.12,13.125,7.82S947.26,398.232,947.26,398.232Z" transform="translate(-597.738 -247.459)" opacity="0.05"/>
    <path id="Path_167" data-name="Path 167" d="M973.317,382.3v8.364h-1.346a39.144,39.144,0,0,0-18.979,4.912l-2.525,1.4-.677.378-4.33-9.748,4.05-3.63h.208c.991.094,5.275.454,7.09-.159,1.724-.586,3.865-2.443,8.943-1.134,2.5.639,4.64,3.445,7.067,2.568Z" transform="translate(-610.461 -249.679)" fill="#fbbebe"/>
    <path id="Path_168" data-name="Path 168" d="M1004.759,326.545l2.794,3.138V337.3s-2.375,24.015-9.915,26.669-21-1.539-21-1.539-3.479-9.215-1.853-9.771,14.369-3.925,14.369-3.925-.178-14.089,2.613-18.279c0,0-1.815-13.121,4.469-13.4S1004.759,326.545,1004.759,326.545Z" transform="translate(-628.43 -209.142)" opacity="0.1"/>
    <path id="Path_169" data-name="Path 169" d="M1005.843,326.545l2.794,3.138V337.3s-2.367,24.015-9.93,26.669-21-1.539-21-1.539-3.475-9.215-1.849-9.771,14.369-3.925,14.369-3.925-.182-14.089,2.613-18.279c0,0-1.815-13.121,4.469-13.4S1005.843,326.545,1005.843,326.545Z" transform="translate(-629.095 -209.142)" fill="#132e63"/>
    <path id="Path_170" data-name="Path 170" d="M968.663,223.438a5.545,5.545,0,0,0-.318-2.719,2.106,2.106,0,0,0-2.216-1.278c-1.195.28-1.709,1.834-2.881,2.208a2.268,2.268,0,0,1-2.533-1.308,6.7,6.7,0,0,1-.488-3.025v-3.5a5.772,5.772,0,0,0-.824-3.638c-.972-1.244-3.259-1.785-4.787-1.736a4.054,4.054,0,0,0-2.734,1.1A3.527,3.527,0,0,1,949,210.571a2.484,2.484,0,0,1-2-1.732v-.045A14.24,14.24,0,1,1,968.175,227.7a38.073,38.073,0,0,0,.488-4.262Z" transform="translate(-611.419 -138.312)" opacity="0.1"/>
    <path id="Path_171" data-name="Path 171" d="M942.938,195.838a2.488,2.488,0,0,1-2-1.736c-.117-.45-.087-.93-.219-1.38-.325-1.1-1.512-1.668-2.269-2.5-1.573-1.671-1.471-4.417-.355-6.428.9-1.618,2.647-2.983,4.466-2.67,1.134.2,2.106,1,3.252,1.074a6.623,6.623,0,0,0,3.112-1.006,11.722,11.722,0,0,1,7.718-.684,4.488,4.488,0,0,1,2.125,1.07,18.927,18.927,0,0,1,1.134,1.592c1.3,1.66,3.634,1.985,5.71,2.36s4.42,1.195,5.1,3.191c.45,1.323,0,2.76-.246,4.137a1.2,1.2,0,0,0,.053.851c.325.537,1.134.314,1.747.442,1.18.246,1.482,1.762,1.512,2.965q.076,2.065.114,4.129a4.057,4.057,0,0,1-1.312,3.452l-4.609,5.54c-2.046,2.458-4.216,5.32-3.8,8.489a1.97,1.97,0,0,1-2.435-1.418,6.353,6.353,0,0,1,.151-3.142,38.486,38.486,0,0,0,.73-5.453,5.54,5.54,0,0,0-.318-2.719,2.085,2.085,0,0,0-2.216-1.282c-1.195.28-1.709,1.834-2.881,2.208a2.271,2.271,0,0,1-2.534-1.308,6.7,6.7,0,0,1-.488-3.025v-3.5a5.779,5.779,0,0,0-.824-3.638c-.972-1.244-3.26-1.785-4.787-1.736a4.061,4.061,0,0,0-2.734,1.1A3.589,3.589,0,0,1,942.938,195.838Z" transform="translate(-605.36 -124.01)" fill="#7c5c5c"/>
    <path id="Path_172" data-name="Path 172" d="M960.79,337.55l4.371,17.961S968.61,355.492,960.79,337.55Z" transform="translate(-619.994 -221.893)" opacity="0.1"/>
    <path id="Path_173" data-name="Path 173" d="M993.709,329.61s-5.725,9.378-3.49,19.069l1.066.079S989.379,344.27,993.709,329.61Z" transform="translate(-637.974 -216.956)" opacity="0.1"/>
    <path id="Path_174" data-name="Path 174" d="M1009.9,469.11s7.029-2.325,7.54,3.07C1017.44,472.181,1016.113,468.483,1009.9,469.11Z" transform="translate(-650.535 -303.397)" opacity="0.1"/>
    <path id="Path_175" data-name="Path 175" d="M936.426,388s-1.4,9.775,1.134,13.684a30.655,30.655,0,0,1-12.289,1.675L924.42,388Z" transform="translate(-597.377 -253.267)" opacity="0.1"/>
    <path id="Path_176" data-name="Path 176" d="M950.466,399.85l-.677.378-4.33-9.748,4.05-3.63h.208C949.653,387.319,948.527,395.713,950.466,399.85Z" transform="translate(-610.461 -252.552)" opacity="0.1"/>
    <path id="Path_177" data-name="Path 177" d="M929.79,386.85s-1.4,9.771,1.134,13.681a30.655,30.655,0,0,1-12.289,1.675L913.75,386.85Z" transform="translate(-590.742 -252.552)" fill="#132e63"/>
    <path id="Path_178" data-name="Path 178" d="M869.787,798.913a3.157,3.157,0,0,1-2.711,2.764c-3.781.567-12.924,2.012-15.231,3.108-2.93,1.4-14.52.42-15.08-.975a2.216,2.216,0,0,1,.2-1.679,4.5,4.5,0,0,1,1.891-2.016,4.664,4.664,0,0,1,.839-.378c2.182-.73,6.3-2.269,7.419-3.895,0,0,5.139-4.5,6.6-6.927a3.362,3.362,0,0,1,2.685-1.671c1.225-.057,2.586.56,3.142,3.24,0,0,6.7,3.823,8.512.469,0,0,.28,5.15,1.391,6.557h0A1.868,1.868,0,0,1,869.787,798.913Z" transform="translate(-542.816 -501.544)" fill="#a27772"/>
    <path id="Path_179" data-name="Path 179" d="M869.787,815.815a3.157,3.157,0,0,1-2.711,2.764c-3.781.567-12.924,2.012-15.231,3.108-2.93,1.4-14.52.42-15.08-.976a2.216,2.216,0,0,1,.2-1.679,4.5,4.5,0,0,1,1.891-2.015c1.891,1.255,6.084,2.48,15.31,1.04,8.8-1.373,13.155-2.719,15.28-3.638h0A1.868,1.868,0,0,1,869.787,815.815Z" transform="translate(-542.816 -518.446)" opacity="0.1"/>
    <g id="Group_56" data-name="Group 56" transform="translate(331.898 62.772)" opacity="0.1">
      <path id="Path_180" data-name="Path 180" d="M1024.935,208.971V208.9a12.925,12.925,0,0,0,.431-3.172,20.354,20.354,0,0,1-.431,2.545,1.546,1.546,0,0,0,0,.7Z" transform="translate(-991.757 -202.69)"/>
      <path id="Path_181" data-name="Path 181" d="M962.284,217.039a4.112,4.112,0,0,1,.344,1.6,4.756,4.756,0,0,0-.344-2.223,2.084,2.084,0,0,0-2.212-1.282c-1.195.28-1.709,1.834-2.881,2.208a2.275,2.275,0,0,1-2.537-1.308,6.643,6.643,0,0,1-.484-3.025v-3.5a5.777,5.777,0,0,0-.824-3.638c-.972-1.244-3.263-1.785-4.787-1.736a4.054,4.054,0,0,0-2.734,1.1,3.534,3.534,0,0,1-2.877,1.025,2.487,2.487,0,0,1-2-1.736c-.117-.45-.087-.93-.219-1.38-.329-1.1-1.512-1.668-2.269-2.5a4.537,4.537,0,0,1-1.176-2.953,4.756,4.756,0,0,0,1.176,3.581c.786.832,1.955,1.407,2.269,2.5.132.446.1.926.219,1.376a2.488,2.488,0,0,0,2,1.736,3.512,3.512,0,0,0,2.877-1.025,4.054,4.054,0,0,1,2.734-1.1c1.513-.049,3.815.5,4.787,1.736a5.814,5.814,0,0,1,.824,3.638v3.5a6.379,6.379,0,0,0,.484,3.025,2.3,2.3,0,0,0,2.537,1.308c1.172-.378,1.687-1.928,2.881-2.208A2.088,2.088,0,0,1,962.284,217.039Z" transform="translate(-937.259 -197.69)"/>
      <path id="Path_182" data-name="Path 182" d="M1017.919,237.235a5.356,5.356,0,0,1-1.187,1.921q-2.3,2.772-4.609,5.54c-1.94,2.333-4,5.033-3.846,8.009.14-2.73,2.042-5.214,3.846-7.381l4.609-5.536a5.41,5.41,0,0,0,1.187-1.925,5.2,5.2,0,0,0,.121-1.512,3.646,3.646,0,0,1-.121.885Z" transform="translate(-981.418 -221.732)"/>
      <path id="Path_183" data-name="Path 183" d="M1001.753,275.876a3.309,3.309,0,0,1-.136-.756,3.783,3.783,0,0,0,.136,1.376,1.972,1.972,0,0,0,2.439,1.414c-.027-.2-.042-.408-.049-.613A1.952,1.952,0,0,1,1001.753,275.876Z" transform="translate(-977.273 -245.842)"/>
    </g>
    <path id="Path_184" data-name="Path 184" d="M879.26,795s1.459,2.567,6.746.306" transform="translate(-569.293 -506.369)" opacity="0.1"/>
    <path id="Path_185" data-name="Path 185" d="M997.5,796.67s4.56,5.369,10.308,1.758" transform="translate(-642.823 -507.407)" opacity="0.1"/>
    <path id="Path_186" data-name="Path 186" d="M1027.13,628.7s-3.225,2.015-3.327,3.169,1.664-.839,1.664-.839Z" transform="translate(-659.178 -402.952)" opacity="0.1"/>
    <path id="Path_187" data-name="Path 187" d="M1026.485,669.53a6.734,6.734,0,0,1-3.97,1.55c-2.409.106-2.208,3.248-.635,2.3A40.182,40.182,0,0,0,1026.485,669.53Z" transform="translate(-657.25 -428.343)" opacity="0.1"/>
    <path id="Path_188" data-name="Path 188" d="M1032.982,674.86s-1.547,7.6-2.8,6.133" transform="translate(-663.146 -431.657)" opacity="0.1"/>
  </g>
</svg>
