<svg xmlns="http://www.w3.org/2000/svg" width="60.176" height="57.275" viewBox="0 0 60.176 57.275">
  <g id="_1" data-name="1" transform="translate(-0.021 0)">
    <g id="Group_778" data-name="Group 778" transform="translate(24.952 15.81)">
      <g id="Group_777" data-name="Group 777">
        <path id="Path_1002" data-name="Path 1002" d="M239.126,160.049H225.65a1.037,1.037,0,0,0-1.037,1.037v4.147a1.037,1.037,0,0,0,1.037,1.037h3.11a2.073,2.073,0,0,1,0,4.147h-3.11a1.037,1.037,0,0,0-1.037,1.037v5.183h-15.55a1.037,1.037,0,0,0-1.037,1.037v13.476a4.147,4.147,0,0,0,4.147,4.147h26.953a4.147,4.147,0,0,0,4.147-4.147V164.2A4.147,4.147,0,0,0,239.126,160.049Zm-14.513,33.173h-12.44a2.073,2.073,0,0,1-2.073-2.073v-12.44h14.513v2.073H222.54a4.147,4.147,0,0,0,0,8.293h2.073Zm16.586-2.073a2.073,2.073,0,0,1-2.073,2.073h-12.44v-5.183A1.037,1.037,0,0,0,225.65,187h-3.11a2.073,2.073,0,0,1,0-4.147h3.11a1.037,1.037,0,0,0,1.037-1.037v-3.11h3.11v2.073a4.147,4.147,0,1,0,8.293,0v-2.073h3.11Zm0-14.513h-4.147a1.037,1.037,0,0,0-1.037,1.037v3.11a2.073,2.073,0,1,1-4.147,0v-3.11a1.037,1.037,0,0,0-1.037-1.037h-4.147v-4.147h2.073a4.147,4.147,0,1,0,0-8.293h-2.073v-2.073h12.44A2.073,2.073,0,0,1,241.2,164.2Z" transform="translate(-208.027 -160.049)" fill="#f5554c"/>
      </g>
    </g>
    <g id="Group_780" data-name="Group 780" transform="translate(0.022 0)">
      <g id="Group_779" data-name="Group 779" transform="translate(0 0)">
        <path id="Path_1003" data-name="Path 1003" d="M43.78,3.824H41.791V.96A.975.975,0,0,0,40.8.006H27.868A3.9,3.9,0,0,0,23.89,3.824v10.69l-4.114,1.909a8,8,0,0,0-2.263-1.959A7.5,7.5,0,0,0,21.061,4.217,8.115,8.115,0,0,0,10.384.811,7.5,7.5,0,0,0,6.835,11.058a7.77,7.77,0,0,0,3.03,3.133,7.734,7.734,0,0,0-4.213,4.918L1.691,31.083A13.787,13.787,0,0,0,2.33,41.356a11.935,11.935,0,0,1-.207,10.706l-2,3.832a.937.937,0,0,0,.445,1.28,1.031,1.031,0,0,0,.445.1H11.956a.975.975,0,0,0,.994-.954A4.725,4.725,0,0,0,10.291,52.1l.475-.911a13.911,13.911,0,0,0,1.336-8.98l-.738-3.894a.929.929,0,0,1,.777-1.074,1.008,1.008,0,0,1,.169-.015.954.954,0,0,1,.949.758l1.351,7.132a18.9,18.9,0,0,1,.329,3.511v7.689a.975.975,0,0,0,.994.954H26.873a.975.975,0,0,0,.994-.954,4.585,4.585,0,0,0-.034-.556,4.238,4.238,0,0,0-2.45-3.322,5,5,0,0,0-3.586-.305l.662-3.177a20.755,20.755,0,0,0,.436-4.224V36.194L21.734,23.413l6.9-3.16a3.573,3.573,0,0,0,2.2-3.066H40.8a.975.975,0,0,0,.994-.954V11.46H43.78a3.9,3.9,0,0,0,3.978-3.818A3.9,3.9,0,0,0,43.78,3.824ZM7.978,7.642a5.851,5.851,0,0,1,5.967-5.727,5.851,5.851,0,0,1,5.967,5.727,5.851,5.851,0,0,1-5.967,5.727A5.857,5.857,0,0,1,7.978,7.642ZM21.8,54.2a2.935,2.935,0,0,1,2.685-.056,2.443,2.443,0,0,1,1.209,1.219H16.929V48.631a20.705,20.705,0,0,0-.362-3.852l-1.351-7.131A2.942,2.942,0,0,0,11.8,35.339,2.846,2.846,0,0,0,9.4,38.614c0,.016.006.032.009.048l.739,3.894a12.063,12.063,0,0,1-1.16,7.784l-.966,1.853a.937.937,0,0,0,.436,1.283,1.022,1.022,0,0,0,.216.077,2.934,2.934,0,0,1,2.116,1.814H2.626L3.9,52.915a13.77,13.77,0,0,0,.239-12.349,11.948,11.948,0,0,1-.555-8.905L7.563,19.634A6.123,6.123,0,0,1,14.6,15.385a5.921,5.921,0,0,1,3.329,1.886L12.056,20a3.554,3.554,0,0,0-2.088,3.19,3.613,3.613,0,0,0,3.677,3.546,3.813,3.813,0,0,0,1.6-.349l4.575-2.093,1.084,11.986v8.462a18.987,18.987,0,0,1-.4,3.849l-1.06,5.084a.956.956,0,0,0,.779,1.124,1.031,1.031,0,0,0,.69-.107Zm6.025-35.692-.03.012-13.4,6.136a1.734,1.734,0,0,1-2.269-.773,1.58,1.58,0,0,1-.165-.7,1.639,1.639,0,0,1,.962-1.471l13.508-6.261a1.779,1.779,0,0,1,1.65.132,1.627,1.627,0,0,1,.787,1.4A1.669,1.669,0,0,1,27.821,18.512ZM43.78,9.551H40.8a.975.975,0,0,0-.994.954v4.772H30.4a3.786,3.786,0,0,0-4.524-1.659V3.824a1.95,1.95,0,0,1,1.989-1.909H39.8V4.778a.975.975,0,0,0,.994.954H43.78a1.95,1.95,0,0,1,1.989,1.909A1.95,1.95,0,0,1,43.78,9.551Z" transform="translate(-0.022 0)" fill="#f5554c"/>
      </g>
    </g>
    <g id="Group_782" data-name="Group 782" transform="translate(26.085 22.471)">
      <g id="Group_781" data-name="Group 781">
        <path id="Path_1004" data-name="Path 1004" d="M224.884,194.426l-3.414,3.414v-5.791H219.4v7.864l-1.037,1.037-1.037-1.037V196.2H215.25v1.644l-3.414-3.414-1.466,1.466,7.256,7.256a1.037,1.037,0,0,0,1.466,0l7.256-7.256Z" transform="translate(-210.371 -192.049)" fill="#f5554c"/>
      </g>
    </g>
    <g id="Group_784" data-name="Group 784" transform="translate(31.077 22.846)">
      <g id="Group_783" data-name="Group 783">
        <rect id="Rectangle_80" data-name="Rectangle 80" width="2.073" height="2.073" fill="#f5554c"/>
      </g>
    </g>
    <g id="Group_786" data-name="Group 786" transform="translate(31.077 19.039)">
      <g id="Group_785" data-name="Group 785">
        <rect id="Rectangle_81" data-name="Rectangle 81" width="2.073" height="2.073" fill="#f5554c"/>
      </g>
    </g>
    <g id="Group_788" data-name="Group 788" transform="translate(35.084 19.039)">
      <g id="Group_787" data-name="Group 787">
        <rect id="Rectangle_82" data-name="Rectangle 82" width="2.073" height="2.073" fill="#f5554c"/>
      </g>
    </g>
  </g>
</svg>
