<svg xmlns="http://www.w3.org/2000/svg" width="60.147" height="47.895" viewBox="0 0 60.147 47.895">
  <g id="_2" data-name="2" transform="translate(0.25 -52.336)">
    <g id="Group_790" data-name="Group 790" transform="translate(23.957 93.304)">
      <g id="Group_789" data-name="Group 789">
        <path id="Path_1005" data-name="Path 1005" d="M207.948,403.041a1.168,1.168,0,0,0-.7-.848,1.2,1.2,0,0,0-.218-.066,1.152,1.152,0,0,0-.456,0,1.175,1.175,0,0,0-.218.066,1.231,1.231,0,0,0-.2.107,1.251,1.251,0,0,0-.177.144,1.169,1.169,0,0,0-.144.178,1.167,1.167,0,0,0-.174.418,1.124,1.124,0,0,0,0,.456,1.176,1.176,0,0,0,.066.218,1.239,1.239,0,0,0,.107.2,1.129,1.129,0,0,0,.322.322,1.246,1.246,0,0,0,.2.107,1.178,1.178,0,0,0,.218.066,1.124,1.124,0,0,0,.456,0,1.2,1.2,0,0,0,.218-.066,1.184,1.184,0,0,0,.2-.107,1.111,1.111,0,0,0,.177-.144,1.177,1.177,0,0,0,.146-.177,1.246,1.246,0,0,0,.107-.2,1.183,1.183,0,0,0,.066-.218,1.131,1.131,0,0,0,0-.456Z" transform="translate(-205.64 -402.104)" fill="#f5554c"/>
      </g>
    </g>
    <g id="Group_792" data-name="Group 792" transform="translate(4.701 93.304)">
      <g id="Group_791" data-name="Group 791">
        <path id="Path_1006" data-name="Path 1006" d="M56.435,402.1H41.521a1.165,1.165,0,0,0,0,2.33H56.435a1.165,1.165,0,1,0,0-2.33Z" transform="translate(-40.356 -402.105)" fill="#f5554c"/>
      </g>
    </g>
    <g id="Group_794" data-name="Group 794" transform="translate(0 52.586)">
      <g id="Group_793" data-name="Group 793" transform="translate(0 0)">
        <path id="Path_1007" data-name="Path 1007" d="M55.8,52.586H3.844A3.849,3.849,0,0,0,0,56.431V96.137a3.848,3.848,0,0,0,3.844,3.844H55.8a3.848,3.848,0,0,0,3.844-3.844V56.431A3.849,3.849,0,0,0,55.8,52.586ZM2.33,56.431a1.516,1.516,0,0,1,1.514-1.515h10.5V72.609H2.33Zm26.328,41.22H3.844A1.516,1.516,0,0,1,2.33,96.137V91.315H28.659Zm0-8.666H2.33V74.939H15.509a1.165,1.165,0,0,0,1.165-1.165V54.916H28.659V60.4a1.165,1.165,0,0,0,1.165,1.165h7.719A1.165,1.165,0,0,0,38.708,60.4V59.72L44.8,63.234l-6.094,3.514v-.684A1.165,1.165,0,0,0,37.543,64.9H29.824a1.165,1.165,0,0,0-1.165,1.165v10.31H23.269V74.838a1.165,1.165,0,0,0-1.747-1.009l-9.591,5.531a1.165,1.165,0,0,0,0,2.018l9.591,5.531A1.165,1.165,0,0,0,23.269,85.9V84.363h5.389Zm1.165-6.952H22.1A1.165,1.165,0,0,0,20.939,83.2v.684l-6.094-3.514,6.094-3.514v.684A1.165,1.165,0,0,0,22.1,78.7h7.719a1.165,1.165,0,0,0,1.165-1.165V67.229h5.389v1.536a1.165,1.165,0,0,0,1.747,1.009l9.591-5.531a1.165,1.165,0,0,0,0-2.018l-9.591-5.531A1.165,1.165,0,0,0,36.378,57.7v1.536H30.989V54.916H55.8a1.516,1.516,0,0,1,1.514,1.515V68.963H44.139a1.165,1.165,0,0,0-1.165,1.165V88.985H30.989V83.2A1.165,1.165,0,0,0,29.824,82.033Zm27.493,6.952H45.3V71.293H57.317V88.985Zm0,7.151A1.516,1.516,0,0,1,55.8,97.651H30.989V91.315H57.317Z" transform="translate(0 -52.586)" fill="#f5554c" stroke="#fff" stroke-width="0.5"/>
      </g>
    </g>
    <g id="Group_796" data-name="Group 796" transform="translate(52.697 93.304)">
      <g id="Group_795" data-name="Group 795">
        <path id="Path_1008" data-name="Path 1008" d="M454.648,403.041a1.2,1.2,0,0,0-.066-.218,1.16,1.16,0,0,0-.253-.377,1.122,1.122,0,0,0-.177-.146,1.18,1.18,0,0,0-.2-.107,1.231,1.231,0,0,0-.218-.066,1.152,1.152,0,0,0-.456,0,1.175,1.175,0,0,0-.218.066,1.15,1.15,0,0,0-.2.107,1.122,1.122,0,0,0-.177.146,1.106,1.106,0,0,0-.144.177,1.178,1.178,0,0,0-.107.2,1.2,1.2,0,0,0-.066.218,1.162,1.162,0,0,0,.066.673,1.235,1.235,0,0,0,.107.2,1.162,1.162,0,0,0,.144.177,1.116,1.116,0,0,0,.177.144,1.154,1.154,0,0,0,.2.107,1.177,1.177,0,0,0,.218.066,1.15,1.15,0,0,0,.227.023,1.168,1.168,0,0,0,.228-.023,1.231,1.231,0,0,0,.218-.066,1.182,1.182,0,0,0,.2-.107,1.117,1.117,0,0,0,.177-.144,1.148,1.148,0,0,0,.253-.379,1.176,1.176,0,0,0,.066-.218,1.146,1.146,0,0,0,.022-.227A1.167,1.167,0,0,0,454.648,403.041Z" transform="translate(-452.34 -402.104)" fill="#f5554c"/>
      </g>
    </g>
    <g id="Group_798" data-name="Group 798" transform="translate(33.441 93.304)">
      <g id="Group_797" data-name="Group 797">
        <path id="Path_1009" data-name="Path 1009" d="M303.132,402.1H288.218a1.165,1.165,0,0,0,0,2.33h14.914a1.165,1.165,0,0,0,0-2.33Z" transform="translate(-287.053 -402.105)" fill="#f5554c"/>
      </g>
    </g>
    <g id="Group_800" data-name="Group 800" transform="translate(3.119 57.299)">
      <g id="Group_799" data-name="Group 799" transform="translate(0 0)">
        <path id="Path_1010" data-name="Path 1010" d="M36.942,104.622,33.677,93.97c-.215-.685-1.109-.928-1.809-.928s-1.594.243-1.809.929l-3.248,10.653a.923.923,0,0,0-.036.2c0,.635.971,1.147,1.775,1.147.5,0,.82-.182.919-.528l.588-2.161H33.7l.588,2.162c.1.345.416.527.918.527.8,0,1.775-.511,1.775-1.147A.912.912,0,0,0,36.942,104.622Zm-6.311-3.5,1.237-4.54,1.236,4.54Z" transform="translate(-26.775 -93.042)" fill="#f5554c"/>
      </g>
    </g>
    <g id="Group_802" data-name="Group 802" transform="translate(47.111 73.727)">
      <g id="Group_801" data-name="Group 801" transform="translate(0 0)">
        <path id="Path_1011" data-name="Path 1011" d="M411.268,239.935a2.79,2.79,0,0,0,1.438-2.739c0-2.593-1.915-3.137-3.521-3.137h-3.58c-.586,0-1.216.271-1.216.867v11.105c0,.422.418.85,1.216.85h3.876c1.614,0,3.539-.656,3.539-3.783v-.367A2.563,2.563,0,0,0,411.268,239.935Zm-4.115-3.443h1.8c.664,0,.966.618.966,1.193a1.058,1.058,0,0,1-.966,1.176h-1.8Zm3.085,6.379c0,1.047-.46,1.577-1.368,1.577h-1.717v-3.434h1.717c.933,0,1.368.5,1.368,1.577Z" transform="translate(-404.389 -234.059)" fill="#f5554c"/>
      </g>
    </g>
  </g>
</svg>
