<svg xmlns="http://www.w3.org/2000/svg" width="43.625" height="59.834" viewBox="0 0 43.625 59.834">
  <g id="_3" data-name="3" transform="translate(-48 8)">
    <g id="Group_768" data-name="Group 768" transform="translate(63.73 45.856)">
      <g id="Group_767" data-name="Group 767">
        <path id="Path_997" data-name="Path 997" d="M199.79,455.307a1.048,1.048,0,1,0,.307.741A1.056,1.056,0,0,0,199.79,455.307Z" transform="translate(-198 -455)" fill="#f5554c"/>
      </g>
    </g>
    <g id="Group_770" data-name="Group 770" transform="translate(71.974 -6.618)">
      <g id="Group_769" data-name="Group 769">
        <path id="Path_998" data-name="Path 998" d="M284.246,27.9h-6.583a1.049,1.049,0,0,0,0,2.1h6.583a1.049,1.049,0,0,0,0-2.1Z" transform="translate(-276.615 -27.897)" fill="#f5554c"/>
      </g>
    </g>
    <g id="Group_772" data-name="Group 772" transform="translate(48 -8)">
      <g id="Group_771" data-name="Group 771">
        <path id="Path_999" data-name="Path 999" d="M90.576,34.125a1.049,1.049,0,0,0,1.049-1.049V-4.209A3.8,3.8,0,0,0,87.833-8H64.795A3.8,3.8,0,0,0,61-4.209V9.174A26.879,26.879,0,0,0,51.04,30.066V41.032H50.1a2.1,2.1,0,0,0-2.1,2.1v7.655a1.049,1.049,0,0,0,2.1,0V43.13H68.7v7.655a1.049,1.049,0,0,0,2.1,0V46.171H87.833a3.8,3.8,0,0,0,3.791-3.791V29.51a1.049,1.049,0,1,0-2.1,0v7.747H73.805l3.335-4.7a3.659,3.659,0,0,0-2.984-5.777,3.684,3.684,0,0,0-2.186.725l-6.623,4.934A1.406,1.406,0,0,1,63.1,31.312V6.116H89.527v26.96A1.049,1.049,0,0,0,90.576,34.125Zm-1.049,5.229v3.025h0a1.7,1.7,0,0,1-1.694,1.694H70.8V43.13a2.093,2.093,0,0,0-.849-1.681,10.285,10.285,0,0,0,2.335-2.1l.042,0h17.2ZM64.507,34.815a3.527,3.527,0,0,0,2.093-.694l6.623-4.934a1.573,1.573,0,0,1,.933-.309,1.562,1.562,0,0,1,1.274,2.466L71,37.58a8.21,8.21,0,0,1-6.684,3.453H53.137V30.066A24.614,24.614,0,0,1,61,11.948V31.312A3.507,3.507,0,0,0,64.507,34.815ZM63.1,6.116V-4.209A1.7,1.7,0,0,1,64.795-5.9H87.833a1.7,1.7,0,0,1,1.694,1.694V6.116Z" transform="translate(-48 8)" fill="#f5554c"/>
      </g>
    </g>
    <g id="Group_774" data-name="Group 774" transform="translate(75.265 40.576)">
      <g id="Group_773" data-name="Group 773">
        <path id="Path_1000" data-name="Path 1000" d="M309.79,404.956a1.048,1.048,0,1,0,.307.741A1.056,1.056,0,0,0,309.79,404.956Z" transform="translate(-308 -404.649)" fill="#f5554c"/>
      </g>
    </g>
    <g id="placeholder" transform="translate(69.272 2.199)">
      <path id="Path_1012" data-name="Path 1012" d="M6.719,0A6.726,6.726,0,0,0,0,6.719c0,1.7,1.072,4.106,3.187,7.147a47.949,47.949,0,0,0,3.13,4.015l.4.452.4-.452a48.017,48.017,0,0,0,3.13-4.015c2.115-3.04,3.187-5.445,3.187-7.147A6.726,6.726,0,0,0,6.719,0ZM9.376,13.245c-1.045,1.5-2.1,2.8-2.657,3.457-.555-.658-1.607-1.947-2.651-3.448-1.96-2.817-3-5.077-3-6.535a5.647,5.647,0,0,1,11.294,0C12.365,8.175,11.332,10.432,9.376,13.245Zm0,0" transform="translate(0.228)" fill="#f5554c" stroke="#f5554c" stroke-width="1"/>
      <path id="Path_1013" data-name="Path 1013" d="M79.648,69.352A2.75,2.75,0,1,0,82.4,72.1,2.753,2.753,0,0,0,79.648,69.352Zm0,4.757A2.007,2.007,0,1,1,81.655,72.1,2.009,2.009,0,0,1,79.648,74.108Zm0,0" transform="translate(-72.67 -65.621)" fill="#f5554c" stroke="#f5554c" stroke-width="1"/>
    </g>
  </g>
</svg>
