<svg xmlns="http://www.w3.org/2000/svg" width="60.268" height="55.333" viewBox="0 0 60.268 55.333">
  <g id="_4" data-name="4" transform="translate(0.1 -2.365)">
    <path id="Path_1014" data-name="Path 1014" d="M10,25.467H23.016a1,1,0,1,0,0-2H10a1,1,0,0,0,0,2Z" transform="translate(0.01 0.024)" fill="#f5554c" stroke="#f5554c" stroke-width="0.2"/>
    <path id="Path_1015" data-name="Path 1015" d="M36.03,29.465H10a1,1,0,1,0,0,2H36.03a1,1,0,1,0,0-2Z" transform="translate(0.01 0.03)" fill="#f5554c" stroke="#f5554c" stroke-width="0.2"/>
    <path id="Path_1016" data-name="Path 1016" d="M36.03,35.465H10a1,1,0,1,0,0,2H36.03a1,1,0,0,0,0-2Z" transform="translate(0.01 0.037)" fill="#f5554c" stroke="#f5554c" stroke-width="0.2"/>
    <path id="Path_1017" data-name="Path 1017" d="M54.133,2.535l-34.181-.07A5.943,5.943,0,0,0,14.016,8.4v5.13l-8.079.017A5.943,5.943,0,0,0,0,19.485V40.65a5.942,5.942,0,0,0,5.937,5.936h6.077V56.6a1,1,0,0,0,1.742.674L23.47,46.584l16.645-.068a5.943,5.943,0,0,0,5.937-5.936v-.113l5.266,5.793a1,1,0,0,0,1.742-.674V35.574h1.071a5.943,5.943,0,0,0,5.937-5.936V8.472A5.943,5.943,0,0,0,54.133,2.535ZM44.05,40.579a3.939,3.939,0,0,1-3.938,3.933l-17.089.07a1,1,0,0,0-.737.327l-8.269,9.1V45.584a1,1,0,0,0-1-1H5.937A3.939,3.939,0,0,1,2,40.649V19.484A3.939,3.939,0,0,1,5.939,15.55l9.078-.019h0l25.1-.052a3.939,3.939,0,0,1,3.934,3.934V40.579ZM58.065,29.637a3.938,3.938,0,0,1-3.934,3.933H52.059a1,1,0,0,0-1,1v8.423l-5.006-5.506V19.414a5.944,5.944,0,0,0-5.939-5.937l-24.1.049V8.4A3.938,3.938,0,0,1,19.95,4.466l34.18.07h0a3.939,3.939,0,0,1,3.934,3.934V29.637Z" transform="translate(0 0)" fill="#f5554c" stroke="#f5554c" stroke-width="0.2"/>
  </g>
</svg>
