<svg xmlns="http://www.w3.org/2000/svg" width="60" height="60" viewBox="0 0 60 60">
  <g id="_5" data-name="5" transform="translate(0)">
    <g id="Group_804" data-name="Group 804" transform="translate(0 20.25)">
      <g id="Group_803" data-name="Group 803">
        <path id="Path_1021" data-name="Path 1021" d="M38.536,195.762c-.631-.379-1.278-.76-1.926-1.134a16.765,16.765,0,0,0,0-3.9c.65-.375,1.3-.756,1.925-1.133a2.529,2.529,0,0,0,1.025-3.118h0l-1.379-3.33a2.529,2.529,0,0,0-2.929-1.48c-.711.177-1.438.365-2.163.56a16.77,16.77,0,0,0-2.761-2.76c.194-.724.383-1.452.56-2.163a2.529,2.529,0,0,0-1.48-2.929l-3.33-1.379a2.529,2.529,0,0,0-3.118,1.024c-.378.63-.76,1.277-1.134,1.926a16.772,16.772,0,0,0-3.9,0c-.375-.65-.756-1.3-1.133-1.925a2.53,2.53,0,0,0-3.118-1.024l-3.33,1.379a2.529,2.529,0,0,0-1.48,2.929c.178.713.366,1.44.56,2.163a16.76,16.76,0,0,0-2.76,2.761c-.726-.195-1.453-.383-2.164-.56a2.529,2.529,0,0,0-2.929,1.48l-1.379,3.33a2.53,2.53,0,0,0,1.024,3.117c.63.379,1.277.76,1.926,1.134a16.778,16.778,0,0,0,0,3.9c-.649.374-1.3.755-1.925,1.133a2.529,2.529,0,0,0-1.024,3.118l1.38,3.33A2.529,2.529,0,0,0,4.5,203.69c.711-.177,1.438-.365,2.162-.56a16.778,16.778,0,0,0,2.761,2.76c-.195.725-.383,1.453-.56,2.163a2.529,2.529,0,0,0,1.48,2.929l3.33,1.38a2.489,2.489,0,0,0,.954.189,2.529,2.529,0,0,0,2.165-1.213c.376-.625.757-1.272,1.134-1.926a16.8,16.8,0,0,0,3.9,0c.373.646.754,1.293,1.133,1.925a2.53,2.53,0,0,0,3.118,1.024l3.33-1.379a2.529,2.529,0,0,0,1.48-2.929c-.176-.707-.364-1.434-.56-2.163a16.778,16.778,0,0,0,2.76-2.761c.724.194,1.451.382,2.163.56a2.529,2.529,0,0,0,2.929-1.48l1.379-3.33A2.53,2.53,0,0,0,38.536,195.762Zm-2.781,5.285c-.684-.171-1.381-.352-2.075-.539a2.509,2.509,0,0,0-2.639.88,14.08,14.08,0,0,1-2.457,2.458,2.508,2.508,0,0,0-.878,2.638c.188.7.369,1.395.539,2.074l-3.061,1.268c-.364-.608-.729-1.228-1.085-1.847a2.509,2.509,0,0,0-2.486-1.244,14.1,14.1,0,0,1-3.475,0,2.508,2.508,0,0,0-2.488,1.244c-.361.626-.725,1.247-1.086,1.848L11.5,208.557c.171-.683.352-1.38.539-2.074a2.509,2.509,0,0,0-.88-2.639,14.082,14.082,0,0,1-2.458-2.457,2.508,2.508,0,0,0-2.638-.878c-.694.187-1.391.368-2.074.539l-1.268-3.061c.6-.363,1.226-.727,1.847-1.085a2.508,2.508,0,0,0,1.244-2.486,14.1,14.1,0,0,1,0-3.475,2.509,2.509,0,0,0-1.244-2.488c-.622-.358-1.243-.723-1.848-1.086L3.994,184.3c.682.171,1.379.352,2.074.539a2.509,2.509,0,0,0,2.639-.88,14.077,14.077,0,0,1,2.457-2.458,2.508,2.508,0,0,0,.878-2.638c-.186-.692-.367-1.389-.539-2.074l3.061-1.268c.361.6.726,1.224,1.085,1.847a2.508,2.508,0,0,0,2.486,1.244,14.071,14.071,0,0,1,3.475,0,2.509,2.509,0,0,0,2.488-1.244c.358-.622.723-1.243,1.085-1.848l3.061,1.268c-.171.684-.352,1.381-.539,2.075a2.509,2.509,0,0,0,.88,2.639,14.086,14.086,0,0,1,2.458,2.457,2.508,2.508,0,0,0,2.638.878c.694-.187,1.39-.368,2.074-.539l1.268,3.061c-.6.362-1.225.727-1.847,1.085a2.508,2.508,0,0,0-1.244,2.486,14.083,14.083,0,0,1,0,3.475,2.509,2.509,0,0,0,1.244,2.488c.621.357,1.242.722,1.848,1.085Z" transform="translate(0 -172.801)" fill="#f5554c"/>
      </g>
    </g>
    <g id="Group_806" data-name="Group 806" transform="translate(10.722 30.972)">
      <g id="Group_805" data-name="Group 805">
        <path id="Path_1022" data-name="Path 1022" d="M109.1,269.944h0A9.164,9.164,0,1,0,104.15,281.9,9.163,9.163,0,0,0,109.1,269.943Zm-5.981,9.478a6.467,6.467,0,1,1,3.5-8.45A6.426,6.426,0,0,1,103.122,279.421Z" transform="translate(-91.494 -264.293)" fill="#f5554c"/>
      </g>
    </g>
    <g id="Group_808" data-name="Group 808" transform="translate(29.513)">
      <g id="Group_807" data-name="Group 807">
        <path id="Path_1023" data-name="Path 1023" d="M280.523,11.828c-.464-.069-.94-.137-1.419-.2a12.5,12.5,0,0,0-.963-2.323c.293-.384.583-.768.862-1.146a2.14,2.14,0,0,0-.209-2.768l-1.853-1.852a2.139,2.139,0,0,0-2.768-.208c-.379.28-.763.57-1.146.862a12.5,12.5,0,0,0-2.323-.963c-.064-.48-.131-.956-.2-1.419A2.14,2.14,0,0,0,268.4,0h-2.62a2.14,2.14,0,0,0-2.1,1.81c-.069.463-.137.939-.2,1.419a12.494,12.494,0,0,0-2.323.963c-.382-.292-.767-.582-1.146-.862a2.14,2.14,0,0,0-2.768.208L255.386,5.39a2.14,2.14,0,0,0-.209,2.769c.279.378.568.762.862,1.146a12.512,12.512,0,0,0-.963,2.323c-.479.064-.956.131-1.419.2a2.14,2.14,0,0,0-1.81,2.1v2.62a2.14,2.14,0,0,0,1.81,2.1c.464.069.94.137,1.419.2a12.511,12.511,0,0,0,.963,2.323c-.293.383-.582.768-.862,1.146a2.14,2.14,0,0,0,.209,2.768l1.852,1.852a2.14,2.14,0,0,0,2.768.208c.379-.28.763-.57,1.146-.862a12.5,12.5,0,0,0,2.323.963c.064.479.131.956.2,1.419a2.14,2.14,0,0,0,2.1,1.81h2.62a2.14,2.14,0,0,0,2.1-1.81c.069-.464.137-.94.2-1.419a12.488,12.488,0,0,0,2.323-.963c.382.292.767.582,1.146.862a2.14,2.14,0,0,0,2.768-.208L278.8,25.1A2.14,2.14,0,0,0,279,22.327c-.28-.378-.569-.763-.862-1.146a12.509,12.509,0,0,0,.963-2.323c.479-.064.956-.131,1.419-.2a2.14,2.14,0,0,0,1.81-2.1v-2.62A2.14,2.14,0,0,0,280.523,11.828Zm-.741,4.36c-.421.061-.85.12-1.281.176a2.122,2.122,0,0,0-1.777,1.541,9.934,9.934,0,0,1-.939,2.265,2.122,2.122,0,0,0,.166,2.347c.264.344.526.689.782,1.031L275.4,24.886c-.343-.256-.689-.518-1.031-.782a2.123,2.123,0,0,0-2.348-.167,9.935,9.935,0,0,1-2.265.939,2.121,2.121,0,0,0-1.541,1.777c-.056.431-.115.861-.176,1.281h-1.89c-.061-.421-.12-.85-.176-1.281a2.122,2.122,0,0,0-1.541-1.777,9.932,9.932,0,0,1-2.265-.939,2.122,2.122,0,0,0-2.347.166c-.343.264-.689.526-1.032.782l-1.336-1.337c.255-.342.517-.688.782-1.032a2.123,2.123,0,0,0,.166-2.347,9.937,9.937,0,0,1-.939-2.265,2.122,2.122,0,0,0-1.777-1.541c-.431-.056-.861-.115-1.281-.177V14.3c.421-.061.85-.12,1.281-.176a2.122,2.122,0,0,0,1.777-1.541,9.932,9.932,0,0,1,.939-2.265,2.123,2.123,0,0,0-.166-2.347c-.265-.344-.527-.69-.782-1.031L258.784,5.6c.343.256.688.518,1.031.781a2.122,2.122,0,0,0,2.348.167,9.939,9.939,0,0,1,2.265-.939,2.121,2.121,0,0,0,1.541-1.777c.056-.431.116-.86.177-1.281h1.89c.061.421.12.85.176,1.281a2.122,2.122,0,0,0,1.541,1.777,9.935,9.935,0,0,1,2.265.939,2.123,2.123,0,0,0,2.347-.166c.343-.264.689-.526,1.032-.782l1.336,1.337c-.255.342-.517.687-.782,1.032a2.123,2.123,0,0,0-.166,2.347,9.944,9.944,0,0,1,.939,2.265,2.122,2.122,0,0,0,1.777,1.541c.431.056.861.115,1.281.177Z" transform="translate(-251.847)" fill="#f5554c"/>
      </g>
    </g>
    <g id="Group_810" data-name="Group 810" transform="translate(39.319 9.806)">
      <g id="Group_809" data-name="Group 809">
        <path id="Path_1024" data-name="Path 1024" d="M340.961,83.675a5.438,5.438,0,1,0,5.438,5.438A5.444,5.444,0,0,0,340.961,83.675Zm0,8.458a3.021,3.021,0,1,1,3.02-3.021A3.024,3.024,0,0,1,340.961,92.133Z" transform="translate(-335.523 -83.675)" fill="#f5554c"/>
      </g>
    </g>
  </g>
</svg>
