<svg xmlns="http://www.w3.org/2000/svg" width="57.924" height="59.921" viewBox="0 0 57.924 59.921">
  <g id="_6" data-name="6" transform="translate(-8)">
    <g id="Group_812" data-name="Group 812" transform="translate(33.639 4.993)">
      <g id="Group_811" data-name="Group 811" transform="translate(0)">
        <rect id="Rectangle_83" data-name="Rectangle 83" width="8.643" height="1.997" fill="#f5554c"/>
      </g>
    </g>
    <g id="Group_814" data-name="Group 814" transform="translate(35.963 53.929)">
      <g id="Group_813" data-name="Group 813">
        <rect id="Rectangle_84" data-name="Rectangle 84" width="3.995" height="1.997" fill="#f5554c"/>
      </g>
    </g>
    <g id="Group_816" data-name="Group 816" transform="translate(25.976 12.983)">
      <g id="Group_815" data-name="Group 815">
        <rect id="Rectangle_85" data-name="Rectangle 85" width="3.995" height="1.997" fill="#f5554c"/>
      </g>
    </g>
    <g id="Group_818" data-name="Group 818" transform="translate(31.968 12.983)">
      <g id="Group_817" data-name="Group 817">
        <rect id="Rectangle_86" data-name="Rectangle 86" width="3.995" height="1.997" fill="#f5554c"/>
      </g>
    </g>
    <g id="Group_826" data-name="Group 826" transform="translate(8)">
      <g id="Group_825" data-name="Group 825">
        <path id="Path_1025" data-name="Path 1025" d="M65.873,22.657a.276.276,0,0,0-.02-.038.831.831,0,0,0-.055-.107.936.936,0,0,0-.132-.2,1.007,1.007,0,0,0-.087-.086.947.947,0,0,0-.2-.134.791.791,0,0,0-.1-.051.978.978,0,0,0-.355-.071H53.94V4.993A5,5,0,0,0,48.946,0H26.975a5,5,0,0,0-4.993,4.993V23.968H9a1,1,0,1,0,0,2H21.982v2H13.992a1,1,0,1,0,0,2h7.989V54.928a5,5,0,0,0,4.993,4.993H48.946a5,5,0,0,0,4.993-4.993V45.94H64.925a1,1,0,0,0,1-1V22.97A.971.971,0,0,0,65.873,22.657Zm-3.944,1.311L48.946,33.706,35.963,23.968ZM23.979,4.993a3,3,0,0,1,3-3H48.946a3,3,0,0,1,3,3V8.988H23.979ZM51.942,54.928a3,3,0,0,1-3,3H26.975a3,3,0,0,1-3-3v-3H51.942Zm0-4.993H23.979V29.961h5.992a1,1,0,0,0,0-2H23.979v-2h5.992a1,1,0,0,0,0-2H23.979V10.986H51.942V21.971H32.967a.979.979,0,0,0-.354.072.791.791,0,0,0-.1.051.947.947,0,0,0-.2.134,1.007,1.007,0,0,0-.087.086.937.937,0,0,0-.132.2,1.057,1.057,0,0,0-.056.106c0,.014-.015.025-.019.039a1,1,0,0,0-.052.312V37.95H26.975a1,1,0,1,0,0,2h4.993v2h-3a1,1,0,1,0,0,2h3v1a1,1,0,0,0,1,1H51.942Zm11.984-5.992H33.966V24.967L48.347,35.753a1,1,0,0,0,1.2,0L63.926,24.967Z" transform="translate(-8)" fill="#f5554c"/>
      </g>
    </g>
  </g>
</svg>
