<svg xmlns="http://www.w3.org/2000/svg" width="60.439" height="56.322" viewBox="0 0 60.439 56.322">
  <g id="_8" data-name="8" transform="translate(0.001 -0.002)">
    <path id="Path_1019" data-name="Path 1019" d="M59.921,20.262a5.238,5.238,0,0,0-1.7-1.973L33.207.933a5.265,5.265,0,0,0-5.978,0L2.218,18.289a5.243,5.243,0,0,0-1.7,1.973.975.975,0,0,0-.167.413A5.23,5.23,0,0,0,0,22.6V51.031a5.262,5.262,0,0,0,5.209,5.292H55.229a5.262,5.262,0,0,0,5.208-5.292V22.6a5.222,5.222,0,0,0-.348-1.919A.987.987,0,0,0,59.921,20.262ZM58.406,51.031a3.178,3.178,0,0,1-.5,1.742L41.5,43.545,58.406,23.261ZM3.377,19.959,28.388,2.6a3.226,3.226,0,0,1,3.662,0L57.06,19.959a3.212,3.212,0,0,1,.81.813L39.722,42.532l-6.933-3.9a5.271,5.271,0,0,0-5.142,0l-6.535,3.677L2.573,20.762A3.215,3.215,0,0,1,3.377,19.959ZM2.529,52.774a3.178,3.178,0,0,1-.5-1.742V23.207l17.3,20.117Zm2.678,1.518a3.243,3.243,0,0,1-.923-.16L28.644,40.414a3.23,3.23,0,0,1,3.149-.006L56.152,54.135a3.225,3.225,0,0,1-.923.157Zm0,0" transform="translate(0 0)" fill="#f5554c"/>
    <path id="Path_1020" data-name="Path 1020" d="M87.347,69.555a3.864,3.864,0,0,0,3.382,2.925l.307.029a3.467,3.467,0,0,0,1.9,1.291l3.225,7.763a.9.9,0,0,0,1.042.531l5.017-1.2a.9.9,0,0,0,.622-1.224l-2.982-7.136.789-.193,13.417,1.9a.9.9,0,0,0,1-1.107L113.69,67.5a4.277,4.277,0,0,0-2.031-8.293l-1.3-5.322a.9.9,0,0,0-1.4-.518L97.934,61.246l-6.02,1.474a3.426,3.426,0,0,0-2.129,1.562,3.464,3.464,0,0,0-.368.842l-.422.275a3.864,3.864,0,0,0-1.649,4.149Zm13.426,9.833-3.24.775-2.661-6.407,3.219-.788Zm14.05-16.562a2.479,2.479,0,0,1-1.562,2.918l-1.171-4.782A2.479,2.479,0,0,1,114.823,62.826Zm-5.9-7.22L113,72.265l-11.666-1.648-2-8.159Zm-17.6,9.611a1.637,1.637,0,0,1,1.017-.746l5.313-1.3,1.859,7.594-5.313,1.3a1.643,1.643,0,0,1-.412.045.907.907,0,0,0-.269-.025,1.65,1.65,0,0,1-1.311-1.229l-1.076-4.394A1.637,1.637,0,0,1,91.326,65.216Zm-1.831,2.127.778,3.179a2.061,2.061,0,0,1-1.174-1.39.029.029,0,0,0,0-.007A2.06,2.06,0,0,1,89.495,67.344Zm0,0" transform="translate(-75.161 -44.762)" fill="#f5554c"/>
  </g>
</svg>
