<?xml version="1.0" encoding="UTF-8" standalone="no"?>
<svg width="270px" height="478px" viewBox="0 0 270 478" version="1.1" xmlns="http://www.w3.org/2000/svg" xmlns:xlink="http://www.w3.org/1999/xlink">
    <!-- Generator: Sketch 3.8.3 (29802) - http://www.bohemiancoding.com/sketch -->
    <title>Android_text</title>
    <desc>Created with Sketch.</desc>
    <defs>
        <polygon id="path-1" points="0.526964071 0 268.779411 0 268.779411 41.7382261 0.526964071 41.7382261"></polygon>
        <filter x="-50%" y="-50%" width="200%" height="200%" filterUnits="objectBoundingBox" id="filter-2">
            <feOffset dx="0" dy="4" in="SourceAlpha" result="shadowOffsetOuter1"></feOffset>
            <feGaussianBlur stdDeviation="2" in="shadowOffsetOuter1" result="shadowBlurOuter1"></feGaussianBlur>
            <feColorMatrix values="0 0 0 0 0   0 0 0 0 0   0 0 0 0 0  0 0 0 0.2 0" type="matrix" in="shadowBlurOuter1"></feColorMatrix>
        </filter>
    </defs>
    <g id="Page-1" stroke="none" stroke-width="1" fill="none" fill-rule="evenodd">
        <g id="Android_text">
            <g id="sms_3">
                <polygon id="Background" fill="#ECEFF1" points="0.745145687 0 268.997593 0 268.997593 477.008299 0.745145687 477.008299"></polygon>
                <g id="nav_bar" transform="translate(0.745146, 441.232676)">
                    <polygon id="nav_bckgr" fill="#030303" points="268.252447 0 268.252447 35.7756224 -2.84217094e-14 35.7756224 -2.84217094e-14 0"></polygon>
                    <path d="M214.005841,23.8504149 L203.350258,23.8504149 C202.977685,23.8504149 202.754141,23.5522848 202.754141,23.2541546 L202.754141,12.5960004 C202.754141,12.2233377 203.0522,11.99974 203.350258,11.99974 L214.005841,11.99974 C214.378414,11.99974 214.601958,12.2978702 214.601958,12.5960004 L214.601958,23.2541546 C214.601958,23.5522848 214.303899,23.8504149 214.005841,23.8504149 L214.005841,23.8504149 Z M203.946374,22.5833616 L213.33521,22.5833616 L213.33521,13.1922608 L203.946374,13.1922608 L203.946374,22.5833616 L203.946374,22.5833616 Z" id="Shape" fill="#FFFFFF"></path>
                    <path d="M134.126224,24.5957404 C130.400495,24.5957404 127.419912,21.6144385 127.419912,17.8878112 C127.419912,14.1611839 130.400495,11.179882 134.126224,11.179882 C137.851952,11.179882 140.832535,14.1611839 140.832535,17.8878112 C140.832535,21.6144385 137.851952,24.5957404 134.126224,24.5957404 L134.126224,24.5957404 Z M134.126224,12.4469353 C131.145641,12.4469353 128.68666,14.9065093 128.68666,17.8878112 C128.68666,20.8691131 131.145641,23.3286871 134.126224,23.3286871 C137.106806,23.3286871 139.565787,20.8691131 139.565787,17.8878112 C139.565787,14.9065093 137.106806,12.4469353 134.126224,12.4469353 L134.126224,12.4469353 Z" id="Shape" fill="#FFFFFF"></path>
                    <path d="M65.5728204,11.0308169 L65.5728204,23.99948 C65.5728204,24.2230777 65.4983059,24.3721428 65.2747622,24.5212079 C65.125733,24.5957404 64.9021893,24.5957404 64.7531602,24.5212079 L53.8740331,18.0368763 C53.5759749,17.8132787 53.5759749,17.2915508 53.8740331,17.0679532 L64.7531602,10.5836216 C64.9021893,10.5090891 65.125733,10.5090891 65.2747622,10.5836216 C65.4983059,10.5836216 65.5728204,10.8072193 65.5728204,11.0308169 L65.5728204,11.0308169 Z M64.5296165,23.0305569 L64.5296165,11.99974 L55.28981,17.5151485 L64.5296165,23.0305569 L64.5296165,23.0305569 Z" id="Shape" fill="#FFFFFF"></path>
                </g>
                <g id="Hangouts-messege-input" transform="translate(0.745146, 404.966403)" fill="#FEFEFE">
                    <rect id="Hangouts-messege-input-background" x="6.53699317e-13" y="0.490650934" width="268.252447" height="35.7756224"></rect>
                </g>
                <g id="Contact-Info" transform="translate(0.223535, 18.633137)">
                    <g id="Contact-Info-background">
                        <use fill="black" fill-opacity="1" filter="url(#filter-2)" xlink:href="#path-1"></use>
                        <use fill="#0F9D58" fill-rule="evenodd" xlink:href="#path-1"></use>
                    </g>
                    <polygon id="back_icon" fill="#FFFFFF" points="23.4720891 26.7571843 19.001215 22.0616338 29.4332546 22.0616338 29.4332546 20.4219178 19.001215 20.4219178 23.4720891 15.7263673 22.3543706 14.5338466 16.0206323 21.2417758 22.3543706 27.949705"></polygon>
                    <path d="M250.895915,17.8878112 C251.71898,17.8878112 252.386206,17.220424 252.386206,16.3971603 C252.386206,15.5738965 251.71898,14.9065093 250.895915,14.9065093 C250.07285,14.9065093 249.405623,15.5738965 249.405623,16.3971603 C249.405623,17.220424 250.07285,17.8878112 250.895915,17.8878112 Z M250.895915,22.359764 C251.71898,22.359764 252.386206,21.6923768 252.386206,20.8691131 C252.386206,20.0458493 251.71898,19.3784621 250.895915,19.3784621 C250.07285,19.3784621 249.405623,20.0458493 249.405623,20.8691131 C249.405623,21.6923768 250.07285,22.359764 250.895915,22.359764 Z M250.895915,26.8317168 C251.71898,26.8317168 252.386206,26.1643296 252.386206,25.3410659 C252.386206,24.5178021 251.71898,23.8504149 250.895915,23.8504149 C250.07285,23.8504149 249.405623,24.5178021 249.405623,25.3410659 C249.405623,26.1643296 250.07285,26.8317168 250.895915,26.8317168 Z" id="More-icon" fill="#FFFFFF"></path>
                    <path d="M232.204099,24.4466753 L232.129584,24.3721428 L228.925458,22.0616338 C228.701914,21.9125687 228.403856,21.9125687 228.180312,22.1361664 C228.180312,22.1361664 228.180312,22.2106989 228.105798,22.2106989 C228.105798,22.2106989 228.105798,22.2106989 228.105798,22.2852315 C227.882254,22.5833616 227.882254,22.6578942 227.733225,22.8814918 C227.509681,23.2541546 227.211623,23.8504149 226.913564,24.5212079 C226.01939,24.3721428 224.678127,23.6268173 223.187836,22.1361664 C221.697545,20.6455154 220.952399,19.3039296 220.80337,18.409539 C221.474001,18.1114088 222.070118,17.8132787 222.44269,17.589681 C222.740749,17.4406159 222.740749,17.4406159 223.038807,17.2170183 L223.113321,17.2170183 C223.113321,17.2170183 223.187836,17.2170183 223.187836,17.1424857 C223.41138,16.9188881 223.41138,16.6207579 223.262351,16.3971603 L220.952399,13.1922608 L220.877884,13.1177282 C220.654341,12.8941306 220.356282,12.8941306 220.132739,13.0431957 C218.567933,14.0866513 217.226671,15.2791721 217.3757,16.6207579 C217.599243,18.1114088 219.313078,21.3163084 221.62303,23.6268173 C223.932982,25.9373262 227.137108,27.6515748 228.6274,27.8751725 C230.117691,28.0987701 231.235409,26.7571843 232.278613,25.1920008 C232.427643,24.9684031 232.427643,24.670273 232.204099,24.4466753 Z" id="phone_icon" fill="#FFFFFF"></path>
                    <path d="M181.070402,16.9025209 C181.070402,15.8001542 181.958017,14.9065093 183.080275,14.9065093 L193.963442,14.9065093 C195.073465,14.9065093 195.973316,15.8028381 195.973316,16.9025209 L195.973316,24.8357052 C195.973316,25.938072 195.085701,26.8317168 193.963442,26.8317168 L183.080275,26.8317168 C181.970253,26.8317168 181.070402,25.935388 181.070402,24.8357052 L181.070402,16.9025209 L181.070402,16.9025209 Z M192.992733,18.0325037 L190.757296,20.2823929 L190.757296,18.6728874 C190.757296,18.2340397 190.246126,17.8878112 189.834433,17.8878112 L184.618413,17.8878112 C184.207093,17.8878112 184.050985,18.2340397 184.050985,18.6728874 L184.050985,23.0454634 C184.050985,23.4843111 184.207093,23.8504149 184.618413,23.8504149 L189.834433,23.8504149 C190.245753,23.8504149 190.757296,23.4847086 190.757296,23.0454634 L190.757296,21.2976255 L192.992733,23.5471172 L192.992733,18.0325037 L192.992733,18.0325037 Z" id="Combined-Shape" fill="#FFFFFF"></path>
                </g>
                <g id="Status_bar" transform="translate(0.745146, 0.000000)">
                    <polygon id="bg" fill="#0B8043" points="268.252447 0 268.252447 18.6331367 -2.84217094e-14 18.6331367 -2.84217094e-14 0"></polygon>
                    <path d="M181.442975,4.84461553 C178.685936,4.84461553 176.375984,7.08059193 176.375984,9.83829616 C176.375984,12.5960004 178.685936,14.8319768 181.442975,14.8319768 C184.274528,14.8319768 186.509965,12.5960004 186.509965,9.83829616 C186.509965,7.08059193 184.274528,4.84461553 181.442975,4.84461553 L181.442975,4.84461553 Z M181.442975,13.639456 C179.356567,13.639456 177.642732,11.99974 177.642732,9.91282871 C177.642732,7.8259174 179.356567,6.18620137 181.442975,6.18620137 C183.529383,6.18620137 185.243218,7.8259174 185.243218,9.91282871 C185.243218,11.9252075 183.529383,13.639456 181.442975,13.639456 Z M181.815548,6.33526647 L180.772344,6.33526647 L180.5488,9.83829616 L180.5488,9.91282871 L180.623314,10.360024 L183.305839,12.7450655 L184.050985,11.99974 L181.890062,9.68923107 L181.815548,6.33526647 Z M186.435451,7.90044995 L186.509965,8.12404759 L187.776713,7.67685231 L187.702198,7.45325467 C187.031567,5.88807119 185.839334,4.54648535 184.200014,3.87569243 L183.97647,3.72662733 L183.529383,4.99368063 L183.752926,5.06821317 C184.945159,5.66447355 185.913849,6.63339665 186.435451,7.90044995 Z M179.207538,5.06821317 L179.431081,4.99368063 L178.983994,3.72662733 L178.76045,3.87569243 C177.195644,4.62101789 175.854382,5.96260373 175.258266,7.52778721 L175.183751,7.75138485 L176.450499,8.19858013 L176.525013,7.97498249 C176.972101,6.7079292 177.94079,5.66447355 179.207538,5.06821317 Z" id="clock_icon" fill="#FFFFFF"></path>
                    <polygon id="signal" fill="#FFFFFF" points="217.582541 3.72662733 217.582541 14.9065093 205.66021 14.9065093"></polygon>
                    <path d="M191.523974,6.25916756 L198.581326,14.9065093 L205.638677,6.25916756 C205.638677,6.25916756 199.110627,0.523685775 191.523974,6.25916756 L191.523974,6.25916756 Z" id="wifi_ico" fill="#FFFFFF"></path>
                    <g id="battery_icon" transform="translate(223.543706, 3.726627)" fill="#FFFFFF">
                        <path d="M4.9924761,1.1179882 L4.9924761,0 L1.93737879,0 L1.93737879,1.1179882 L0.223543706,1.1179882 L0.223543706,11.179882 L6.63179661,11.179882 L6.63179661,1.1179882 L4.9924761,1.1179882 L4.9924761,1.1179882 Z M2.3844662,9.98736126 L3.12961188,6.85699429 L1.78834965,6.85699429 L2.75703904,2.90676932 L5.29053438,2.90676932 L4.32184498,5.589941 L5.81213636,5.589941 L2.3844662,9.98736126 L2.3844662,9.98736126 Z" id="Shape" opacity="0.5"></path>
                        <polygon id="Shape" points="6.70631118 6.26073392 6.70631118 11.179882 0.223543706 11.179882 0.223543706 6.26073392 1.86286422 6.26073392 1.78834965 6.85699429 3.12961188 6.85699429 2.3844662 9.98736126 5.21601981 6.26073392"></polygon>
                    </g>
                </g>
            </g>
        </g>
    </g>
</svg>